<svg width="49" height="49" viewBox="0 0 49 49" fill="none" xmlns="http://www.w3.org/2000/svg">
<path d="M44.0881 32.4929C44.0881 32.4504 44.0796 32.401 44.0626 32.3602L40.0796 23.0587C40.0286 22.9345 39.9044 22.8596 39.7717 22.8596H35.4552V20.8588C38.4106 20.6835 40.7687 18.225 40.7687 15.2187C40.7687 12.1051 38.237 9.57178 35.1235 9.57178C32.1188 9.57178 29.662 11.9316 29.4885 14.8869H13.8765C13.6928 14.8869 13.5448 15.0366 13.5448 15.2187V22.8596H9.22833C9.09562 22.8596 8.97823 22.943 8.92038 23.0587L4.93743 32.3602C4.92042 32.401 4.91191 32.4435 4.91191 32.4929V43.1232C4.91191 43.3052 5.06163 43.4549 5.24368 43.4549H43.7563C43.9384 43.4549 44.0881 43.3052 44.0881 43.1232V32.4929ZM40.1034 24.8111L43.2493 32.1611H40.1034V24.8111ZM14.2083 15.8839L21.5124 21.3641C22.392 22.0293 23.4451 22.3526 24.5 22.3526C25.5549 22.3526 26.608 22.0208 27.4876 21.3641L30.8156 18.8648C31.7871 20.0115 33.1992 20.7669 34.7917 20.8588V26.846H14.2083V15.8839ZM30.4174 18.3339L27.0895 20.8333C25.5617 21.98 23.4298 21.98 21.9105 20.8333L14.8718 15.5522H29.4885C29.5463 16.573 29.8866 17.5275 30.4174 18.3339ZM35.1235 10.237C37.8712 10.237 40.1034 12.4709 40.1034 15.2187C40.1034 17.9681 37.8712 20.2021 35.1235 20.2021C32.3774 20.2021 30.1435 17.9681 30.1435 15.2187C30.1435 12.4709 32.3774 10.237 35.1235 10.237ZM13.8765 27.5095H35.1235C35.3072 27.5095 35.4552 27.3598 35.4552 27.1777V23.5232H39.4399V32.1611H9.5601V23.5232H13.5448V27.1777C13.5448 27.3598 13.6928 27.5095 13.8765 27.5095ZM8.89656 24.8111V32.1611H5.75069L8.89656 24.8111ZM5.57545 42.7897V32.8247H43.4246V42.7897H5.57545Z" fill="white"/>
<path d="M32.6428 17.6602C32.9491 17.9426 33.3319 18.1502 33.7879 18.2999C34.2439 18.4496 34.7509 18.5245 35.3157 18.5245C35.6883 18.5245 36.0371 18.4922 36.3604 18.4241C36.6836 18.3578 36.9661 18.2591 37.2247 18.1264C37.4816 17.9937 37.7045 17.8354 37.8967 17.6364C38.0873 17.4458 38.2455 17.2212 38.3612 16.9796H37.6313C37.4237 17.2365 37.1736 17.4373 36.8844 17.5785C36.585 17.7197 36.2277 17.8184 35.804 17.8678C35.2732 17.9273 34.7917 17.9018 34.3681 17.8099C33.9461 17.7197 33.5803 17.5615 33.2809 17.3369C32.9831 17.1123 32.75 16.8384 32.5918 16.5152C32.4353 16.1902 32.3604 15.8261 32.3604 15.4263C32.3604 15.1285 32.3927 14.8376 32.4676 14.5552C32.5425 14.2727 32.6514 14.0073 32.7909 13.7742C32.9491 13.5088 33.1482 13.2757 33.3812 13.0937C33.6126 12.9099 33.8951 12.7704 34.203 12.67C34.5178 12.5696 34.8581 12.5203 35.2324 12.5203C35.5965 12.5203 35.9299 12.5696 36.2192 12.67C36.5101 12.7704 36.75 12.9099 36.9508 13.0937C37.1498 13.2757 37.2978 13.4833 37.4067 13.7249C37.5139 13.9648 37.565 14.2319 37.565 14.5058C37.565 14.8376 37.4901 15.1438 37.3489 15.4195C37.1992 15.7019 37.0324 15.9163 36.8334 16.083C36.6343 16.2497 36.4761 16.3246 36.3519 16.3246C36.3195 16.3246 36.2855 16.3076 36.2617 16.2821C36.2362 16.2497 36.2192 16.2072 36.2192 16.1579C36.2192 16.1085 36.2362 15.9996 36.2702 15.8499L36.7925 13.3761H35.8789L35.7955 13.7572C35.605 13.451 35.2987 13.2927 34.8836 13.2927C34.5263 13.2927 34.203 13.3999 33.9121 13.6245C33.6297 13.8491 33.4051 14.1315 33.2485 14.4803C33.0903 14.8291 33.0155 15.1864 33.0155 15.5437C33.0155 15.8925 33.0903 16.1834 33.24 16.4148C33.3898 16.6564 33.5888 16.8214 33.8287 16.9218C34.0703 17.0222 34.3272 17.046 34.5841 16.9967C34.841 16.9473 35.0741 16.8214 35.2732 16.6223C35.3072 16.7636 35.3736 16.8639 35.4808 16.9218C35.5811 16.9881 35.7292 17.0137 35.9129 17.0137C36.2362 17.0137 36.5356 16.9473 36.8095 16.8061C37.0835 16.6734 37.3319 16.4811 37.5309 16.2497C37.7385 16.0167 37.8967 15.7512 38.0039 15.4518C38.1128 15.1523 38.1707 14.8546 38.1707 14.5467C38.1707 14.1485 38.1043 13.7912 37.9631 13.4595C37.8304 13.1345 37.6313 12.8436 37.3642 12.6122C37.1073 12.3706 36.7925 12.1885 36.4267 12.0643C36.0626 11.9384 35.6628 11.8721 35.2239 11.8721C34.693 11.8721 34.203 11.9639 33.7624 12.1392C33.3234 12.3127 32.9491 12.5611 32.6428 12.8776C32.3349 13.1923 32.1035 13.5581 31.9368 13.9818C31.77 14.4054 31.6969 14.8631 31.6969 15.3531C31.6969 15.8176 31.7785 16.2497 31.9368 16.6394C32.1035 17.046 32.3349 17.3863 32.6428 17.6602ZM35.4637 15.4926C35.3821 15.7597 35.2562 15.9758 35.0911 16.1494C34.9244 16.3246 34.7339 16.4063 34.5178 16.4063C34.3357 16.4063 34.1775 16.3314 34.0703 16.1834C33.9529 16.0337 33.8951 15.8261 33.8951 15.5522C33.8951 15.2851 33.9376 15.0196 34.0278 14.7712C34.1197 14.5211 34.2439 14.3136 34.4021 14.157C34.5671 13.9988 34.7424 13.9239 34.9499 13.9239C35.0486 13.9239 35.1405 13.941 35.2239 13.9818C35.3072 14.0243 35.3736 14.0737 35.4229 14.1485C35.4808 14.2234 35.5216 14.3051 35.5471 14.4054C35.5726 14.5058 35.5897 14.613 35.5897 14.7372C35.5897 14.9788 35.5471 15.2357 35.4637 15.4926Z" fill="white"/>
<path d="M19.1883 10.2373H21.5124V13.2267C21.5124 13.4087 21.6621 13.5585 21.8441 13.5585H27.1559C27.3379 13.5585 27.4876 13.4087 27.4876 13.2267V10.2373H29.8117C29.9529 10.2373 30.0772 10.1455 30.1282 10.0128C30.169 9.88005 30.1282 9.73033 30.0108 9.63846L24.6991 5.6521C24.5834 5.56193 24.4166 5.56193 24.3009 5.6521L18.9892 9.63846C18.8718 9.72183 18.831 9.87155 18.8718 10.0128C18.9228 10.1455 19.047 10.2373 19.1883 10.2373ZM24.5 6.33436L28.8164 9.5721H27.1559C26.9738 9.5721 26.8241 9.72183 26.8241 9.90558V12.8949H22.1759V9.90558C22.1759 9.72183 22.0262 9.5721 21.8441 9.5721H20.1836L24.5 6.33436Z" fill="white"/>
</svg>
