<svg width="41" height="41" viewBox="0 0 41 41" fill="none" xmlns="http://www.w3.org/2000/svg">
<path d="M36.7074 21.844C37.1736 22.6471 37.6364 23.4552 38.106 24.2617C38.1587 24.3553 38.2166 24.4505 38.2693 24.5475C38.2931 24.5969 38.305 24.6105 38.3289 24.6581C38.4088 24.8112 38.3255 24.6343 38.3186 24.6309C38.3918 24.687 38.3391 24.8674 38.3986 24.9269C38.3952 24.8912 38.3918 24.8572 38.3884 24.818C38.3918 24.8606 38.3952 24.898 38.3986 24.9405C38.3986 24.9797 38.3986 25.0205 38.3986 25.063C38.3986 25.0971 38.4054 25.2094 38.3884 25.24C38.3918 25.2043 38.3952 25.1668 38.3986 25.1328C38.3918 25.1702 38.385 25.2128 38.3731 25.2502C38.3629 25.2893 38.3527 25.3268 38.3425 25.3659C38.3357 25.3829 38.3289 25.4033 38.322 25.4203C38.2863 25.5071 38.2931 25.4935 38.3391 25.3829C38.3493 25.4391 38.2132 25.6024 38.1893 25.6432C38.0992 25.7827 38.2098 25.6194 38.2098 25.616C38.2064 25.6466 38.1094 25.7266 38.0856 25.7487C38.0753 25.7589 37.9937 25.8321 37.9937 25.8321C38.0856 25.7623 38.0924 25.7555 38.0158 25.81C37.9869 25.8287 37.9597 25.8457 37.9358 25.8627C37.8372 25.9188 37.7402 25.975 37.6432 26.0294C36.8316 26.499 36.0082 26.9584 35.2034 27.4399C34.3646 27.9401 33.8712 28.8282 33.8644 29.8031C33.8593 30.2472 33.8644 30.6963 33.8644 31.1421C33.8644 31.6644 33.8644 32.1868 33.8644 32.7074C33.8644 32.7601 33.8678 32.8129 33.8644 32.8656C33.8644 32.8724 33.8644 32.8792 33.8644 32.886C33.8644 32.9371 33.8559 32.9898 33.8559 33.0426C33.8491 33.1089 33.8525 33.0834 33.8712 32.9694C33.8593 33.0068 33.8525 33.046 33.8423 33.0868C33.8355 33.1259 33.8253 33.1634 33.8117 33.2025C33.8049 33.2229 33.8015 33.2399 33.7947 33.2586C33.7623 33.3488 33.7657 33.3352 33.8151 33.2195C33.8253 33.2825 33.6994 33.4254 33.6687 33.4781C33.6126 33.5717 33.6858 33.5053 33.696 33.4458C33.6892 33.4781 33.6194 33.5326 33.599 33.5547C33.565 33.5887 33.5258 33.6193 33.4952 33.6551C33.3659 33.7793 33.6228 33.5819 33.4816 33.6653C33.4289 33.6959 33.2859 33.8218 33.223 33.8116C33.2553 33.798 33.2859 33.7844 33.3166 33.7691C33.2791 33.7844 33.2434 33.798 33.206 33.8082C33.1668 33.8218 33.1294 33.832 33.0903 33.8422C33.0699 33.8456 33.0494 33.849 33.0324 33.8524C32.9372 33.8711 32.9525 33.8711 33.0733 33.8524C33.0597 33.8643 32.9593 33.8609 32.9525 33.8609C32.9235 33.8609 32.8963 33.8609 32.8691 33.8609C32.7194 33.8643 32.5662 33.8609 32.4199 33.8609C31.8347 33.8609 31.2528 33.8609 30.6692 33.8609C30.283 33.8609 29.8832 33.8354 29.4952 33.8813C28.5816 33.9885 27.8466 34.5041 27.3872 35.2969C26.8972 36.1425 26.4123 36.9915 25.9223 37.8371C25.9053 37.8694 25.8832 37.9 25.8662 37.9324C25.8424 37.9698 25.8168 38.0327 25.7794 38.0634C25.9087 37.963 25.8356 37.9987 25.7964 38.0361C25.7522 38.0787 25.7062 38.1229 25.6637 38.1688C25.5327 38.305 25.81 38.0821 25.6467 38.1859C25.6093 38.2097 25.4425 38.3492 25.3864 38.3356C25.4204 38.322 25.4493 38.3118 25.4834 38.2964C25.4527 38.3084 25.4238 38.3186 25.3966 38.3288C25.3507 38.339 25.303 38.356 25.2537 38.3696C25.2197 38.3781 25.0767 38.4428 25.1907 38.3883C25.2962 38.3356 25.1771 38.3883 25.1278 38.3917C25.0767 38.3951 25.0274 38.3951 24.9746 38.3917C24.944 38.3917 24.9168 38.3917 24.8845 38.3883C24.7909 38.3781 24.8045 38.3815 24.9304 38.3951C24.91 38.4121 24.6514 38.3356 24.6378 38.3152C24.6412 38.3186 24.8147 38.4053 24.665 38.3254C24.6174 38.3016 24.6003 38.2896 24.551 38.2658C24.5272 38.2488 24.4949 38.2318 24.471 38.2165C24.2941 38.1161 24.1154 38.0123 23.9419 37.9102C23.4366 37.6193 22.9296 37.3301 22.4243 37.0374C21.9785 36.7805 21.5378 36.4879 21.0223 36.3943C20.3707 36.2786 19.7344 36.3824 19.1559 36.7039C19.0589 36.7584 18.9585 36.8179 18.8616 36.8741C18.3665 37.1599 17.8765 37.4441 17.3814 37.7265C17.0717 37.9068 16.7654 38.0923 16.4524 38.2658C16.4082 38.2896 16.3588 38.3152 16.3095 38.339C16.2023 38.3985 16.5051 38.2794 16.3095 38.3322C16.272 38.3458 16.2329 38.356 16.1921 38.3662C16.1734 38.373 16.1529 38.3781 16.1325 38.3815C16.039 38.3985 16.056 38.3985 16.1819 38.3815C16.1155 38.4189 15.9522 38.3951 15.879 38.3917C15.8671 38.3917 15.7769 38.3917 15.7599 38.3815C15.8892 38.3985 15.9062 38.3985 15.8093 38.3815C15.7803 38.3781 15.7531 38.3696 15.7225 38.3594C15.6766 38.3492 15.6272 38.3322 15.5796 38.3186C15.4043 38.2658 15.6732 38.3917 15.5898 38.322C15.5268 38.2658 15.4077 38.2063 15.3312 38.1654C15.2308 38.1127 15.4741 38.3016 15.3431 38.1654C15.3108 38.1365 15.2801 38.1093 15.2512 38.0821C15.2376 38.0634 15.224 38.0497 15.2104 38.0327C15.1508 37.963 15.1576 37.9732 15.2274 38.06C15.2172 38.0634 15.127 37.9102 15.1236 37.9C14.6472 37.1072 14.1981 36.2956 13.7353 35.496C13.4001 34.9209 13.0105 34.3969 12.381 34.1178C11.8246 33.8711 11.2785 33.8609 10.683 33.8609C10.1045 33.8609 9.52094 33.8609 8.93906 33.8609C8.71618 33.8609 8.4933 33.8609 8.27041 33.8609C8.22618 33.8609 8.17684 33.8609 8.1309 33.8609C8.11729 33.8609 8.10028 33.8609 8.08666 33.8609C8.04753 33.8558 7.95736 33.8711 7.93014 33.849C8.05434 33.8677 8.06965 33.8711 7.97437 33.8524C7.95396 33.8456 7.93694 33.8422 7.91653 33.8388C7.85698 33.8252 7.80083 33.8048 7.74128 33.7878C7.58135 33.7418 7.78041 33.8082 7.78382 33.8082C7.72087 33.8184 7.58135 33.6959 7.52691 33.6619C7.35847 33.5649 7.64771 33.7912 7.5116 33.6551C7.48437 33.6261 7.45375 33.5989 7.42823 33.5751C7.40441 33.5496 7.31423 33.473 7.31083 33.4424C7.33125 33.4696 7.34826 33.4951 7.36868 33.5224C7.34826 33.4917 7.32784 33.4594 7.30743 33.4254C7.2785 33.3828 7.25809 33.342 7.23427 33.2961C7.22746 33.2893 7.22406 33.2825 7.22066 33.2722C7.17812 33.1889 7.18493 33.2025 7.23427 33.3131C7.18153 33.2757 7.16451 33.08 7.1509 33.0255C7.10496 32.8571 7.1509 33.0664 7.1509 33.0698C7.12878 33.0426 7.1441 32.9201 7.1441 32.8826C7.1441 32.8758 7.1441 32.8656 7.1441 32.8571C7.13559 32.4199 7.1441 31.9843 7.1441 31.5453C7.1441 31.0162 7.1441 30.4871 7.1441 29.9596C7.1441 29.1685 6.92462 28.425 6.34955 27.8533C6.01267 27.5199 5.57031 27.3038 5.16368 27.0673C4.65156 26.7712 4.13944 26.4786 3.62903 26.1826C3.4725 26.0924 3.31597 26.0022 3.15774 25.912C3.12031 25.8865 3.08288 25.8661 3.04375 25.8457C3.03694 25.8389 2.87361 25.7164 2.97739 25.7997C3.08288 25.8865 2.92975 25.7555 2.92125 25.7487C2.88382 25.713 2.85149 25.6721 2.81406 25.6364C2.77663 25.5871 2.78684 25.6058 2.85149 25.6926C2.82767 25.6568 2.80725 25.6262 2.78344 25.5922C2.76132 25.5564 2.7409 25.5224 2.72389 25.4867C2.71368 25.4697 2.70347 25.4527 2.69156 25.4339C2.65413 25.3506 2.65753 25.3659 2.70687 25.4765C2.65073 25.4135 2.64392 25.2672 2.6184 25.1906C2.59118 25.0903 2.57416 25.1668 2.6184 25.24C2.59798 25.2043 2.60819 25.1005 2.60819 25.0596C2.60819 25.0205 2.60819 24.9797 2.60819 24.9405C2.6116 24.898 2.615 24.8572 2.6184 24.818C2.615 24.8538 2.6116 24.8878 2.60819 24.9269C2.59118 24.9065 2.66094 24.6479 2.68816 24.6275C2.67455 24.6581 2.66434 24.687 2.65073 24.7177C2.66774 24.6768 2.68476 24.6377 2.70687 24.6037C2.72048 24.5713 2.72729 24.5645 2.7375 24.5441C2.75451 24.5118 2.77663 24.4778 2.79364 24.4471C3.28364 23.6016 3.77534 22.7594 4.25854 21.9087C4.75534 21.0461 4.78767 20.0303 4.29597 19.149C4.11222 18.8121 3.91316 18.4821 3.7192 18.1469C3.44357 17.6671 3.16625 17.1873 2.88722 16.7058C2.83107 16.6122 2.77663 16.5153 2.72048 16.4183C2.69837 16.3758 2.66434 16.323 2.65073 16.2754C2.69837 16.4659 2.67455 16.3281 2.66094 16.2754C2.64392 16.226 2.63712 16.175 2.6184 16.1256C2.56396 15.9453 2.6116 16.2618 2.615 16.1427C2.6184 16.0525 2.60479 15.9623 2.60819 15.8721C2.6116 15.8534 2.6116 15.833 2.615 15.8126C2.62691 15.719 2.6235 15.7326 2.60819 15.8602C2.59798 15.8534 2.64392 15.7003 2.64732 15.6867C2.66094 15.6459 2.67455 15.5472 2.70687 15.5166C2.69837 15.5234 2.6116 15.6969 2.69156 15.5574C2.7409 15.4774 2.78344 15.3634 2.85149 15.3005C2.71028 15.4332 2.81746 15.3532 2.8566 15.3107C2.89062 15.2733 2.93316 15.2409 2.96719 15.2035C3.1033 15.064 2.8634 15.263 2.96719 15.2001C3.01312 15.1746 3.05396 15.1439 3.09989 15.1167C3.19687 15.0572 3.29045 15.0044 3.38913 14.95C3.87573 14.6676 4.36573 14.3851 4.85743 14.0993C5.17389 13.9189 5.49375 13.742 5.8068 13.5531C6.64899 13.0495 7.13559 12.158 7.1441 11.1797C7.1475 10.2099 7.1441 9.23502 7.1441 8.26353C7.1441 8.2193 7.1441 8.16995 7.1441 8.12402C7.1441 8.0968 7.1441 8.07298 7.1441 8.04745C7.1441 8.02704 7.1475 8.00662 7.1475 7.9862C7.1543 7.88752 7.1543 7.90114 7.13559 8.02704C7.12198 7.99641 7.16791 7.87732 7.17812 7.85009C7.18833 7.80416 7.21726 7.75652 7.22406 7.70718C7.23767 7.59999 7.12538 7.87732 7.22066 7.72079C7.25469 7.66124 7.31083 7.49791 7.37378 7.47068C7.31423 7.49791 7.2717 7.58127 7.34826 7.50471C7.3908 7.46388 7.42823 7.41794 7.47076 7.38051C7.47416 7.37711 7.54052 7.30395 7.55753 7.30395C7.46055 7.3737 7.45035 7.38391 7.52691 7.33117C7.55073 7.31416 7.57455 7.30054 7.59837 7.28183C7.6409 7.25801 7.68684 7.23759 7.72767 7.21207C7.8876 7.1185 7.60687 7.23079 7.71406 7.21718C7.80764 7.20186 7.91312 7.16103 8.0067 7.13551C8.1275 7.10489 7.79062 7.14402 7.99309 7.14061C8.03392 7.13551 8.07646 7.13551 8.11729 7.13551C8.1275 7.13551 8.13941 7.13551 8.14962 7.13551C8.31295 7.13211 8.47628 7.13551 8.63962 7.13551C9.21809 7.13551 9.79826 7.13551 10.3767 7.13551C10.8293 7.13551 11.2887 7.16103 11.7327 7.08447C12.5613 6.94836 13.2198 6.392 13.6264 5.68082C13.885 5.23676 14.1419 4.7944 14.3988 4.34863C14.6285 3.94541 14.8616 3.54218 15.0947 3.13725C15.127 3.0862 15.161 3.03686 15.19 2.98412C15.2274 2.92117 15.2104 2.88714 15.1712 3.00624C15.1866 2.9637 15.2631 2.90075 15.2972 2.87013C15.3074 2.85992 15.3873 2.79016 15.3873 2.78676C15.2937 2.85652 15.2835 2.86672 15.3601 2.81058C15.3737 2.80037 15.3907 2.78676 15.4077 2.77655C15.4605 2.74422 15.5132 2.717 15.566 2.68468C15.7038 2.60471 15.5302 2.69148 15.5234 2.69999C15.5864 2.64044 15.7327 2.63704 15.8093 2.61152C15.9998 2.55367 15.6204 2.61152 15.8195 2.60471C15.8603 2.60471 15.8994 2.60131 15.9403 2.60131C15.9998 2.60131 16.0594 2.60471 16.1223 2.60471C16.2925 2.61152 15.9556 2.55707 16.1325 2.61152C16.1853 2.62683 16.2329 2.63704 16.2823 2.65065C16.4524 2.70339 16.2789 2.66086 16.2857 2.64384C16.2857 2.64044 16.4524 2.72721 16.4558 2.73061C16.4949 2.75103 16.5256 2.77145 16.5647 2.79357C16.7416 2.89395 16.9186 2.99773 17.1006 3.10322C17.6042 3.39245 18.1095 3.68339 18.6132 3.97603C19.1151 4.26527 19.5847 4.5477 20.1733 4.62426C20.9202 4.72464 21.5617 4.46093 22.1878 4.09513C22.9925 3.63235 23.7888 3.13384 24.6106 2.69999C24.631 2.68808 24.648 2.67787 24.665 2.66766C24.7535 2.63023 24.745 2.63363 24.6378 2.68127C24.648 2.66766 24.7484 2.64384 24.7569 2.64384C24.7773 2.63704 24.9168 2.58429 24.9338 2.60131C24.9338 2.60131 24.7109 2.61492 24.8845 2.60471C24.99 2.60131 25.0869 2.60131 25.1873 2.60471C25.3728 2.61152 25.0699 2.55707 25.1669 2.60471C25.2265 2.63363 25.3098 2.63704 25.3728 2.65745C25.3864 2.66426 25.4664 2.68127 25.4834 2.69999C25.4527 2.68468 25.4204 2.67107 25.3898 2.65745C25.4272 2.67447 25.4629 2.69488 25.4936 2.7136C25.5327 2.73402 25.5633 2.75443 25.5991 2.77655C25.6161 2.78676 25.6331 2.79697 25.6501 2.81058C25.7233 2.86332 25.7131 2.85652 25.6195 2.78676C25.6637 2.79357 25.8253 2.96711 25.839 3.00624C25.8356 2.99433 25.7301 2.8412 25.8168 2.98412C25.8424 3.02666 25.8628 3.05048 25.8832 3.09301C26.0823 3.41968 26.266 3.74975 26.4549 4.07811C26.7356 4.56471 27.018 5.05131 27.297 5.5362C27.3447 5.62298 27.394 5.71315 27.4468 5.79992C27.77 6.33926 28.2464 6.73228 28.8317 6.96197C29.3251 7.15423 29.8406 7.13211 30.3595 7.13211C30.9397 7.13211 31.525 7.13211 32.1103 7.13211C32.3247 7.13211 32.5407 7.13211 32.7568 7.13211C32.7993 7.13211 32.8402 7.13211 32.8827 7.13211C32.9269 7.13551 32.9729 7.14061 33.0137 7.14061C33.1924 7.14061 32.9729 7.1287 32.9729 7.1287C33.0069 7.11169 33.143 7.16784 33.1787 7.17804C33.2128 7.18825 33.2995 7.19846 33.32 7.22739C33.2893 7.21207 33.2587 7.19846 33.2264 7.18485C33.2553 7.19846 33.2791 7.21207 33.3064 7.22739C33.3489 7.2512 33.3897 7.27162 33.4357 7.30054C33.4459 7.30735 33.6024 7.41794 33.4918 7.33457C33.3795 7.2478 33.5292 7.3703 33.5394 7.38051C33.5752 7.41454 33.6058 7.45027 33.6415 7.48429C33.6483 7.4911 33.6551 7.49791 33.6619 7.50471C33.7215 7.57787 33.7147 7.56426 33.6381 7.47068C33.6619 7.48089 33.7215 7.59489 33.7351 7.617C33.7487 7.64423 33.8219 7.74461 33.8151 7.77353C33.8151 7.77353 33.7487 7.57447 33.7981 7.7344C33.8185 7.80416 33.8287 7.97089 33.8712 8.02704C33.8049 7.94027 33.8559 7.88412 33.8644 8.01683C33.8678 8.04745 33.8678 8.07638 33.8678 8.11041C33.8678 8.12402 33.8678 8.13933 33.8678 8.14954C33.8712 9.11933 33.8678 10.0908 33.8678 11.0589C33.8678 11.8552 34.1077 12.631 34.71 13.1839C35.0605 13.5089 35.5028 13.7284 35.9163 13.9649C36.4182 14.2558 36.9218 14.5451 37.4237 14.8377C37.57 14.9211 37.7198 15.0044 37.8627 15.0878C37.9137 15.1201 37.9631 15.1542 38.0158 15.1831C38.1893 15.2835 37.9035 15.0606 38.043 15.2035C38.0702 15.2341 38.1026 15.2596 38.1298 15.2903C38.1655 15.3243 38.3186 15.4468 38.1587 15.3005C38.1961 15.3396 38.2319 15.4043 38.2557 15.4536C38.2829 15.4927 38.2965 15.5506 38.3289 15.5863C38.3986 15.6663 38.2727 15.3975 38.3255 15.5727C38.3391 15.6169 38.4292 15.8364 38.402 15.8602C38.4054 15.8568 38.3918 15.6765 38.3952 15.8126C38.3986 15.8721 38.402 15.9334 38.402 15.9929C38.402 16.0355 38.3986 16.0729 38.3952 16.1154C38.385 16.209 38.3884 16.1954 38.402 16.0661C38.3952 16.1086 38.3884 16.1461 38.3765 16.1886C38.3629 16.226 38.3493 16.2652 38.3425 16.306C38.2863 16.4983 38.4054 16.1954 38.3459 16.306C38.322 16.3553 38.2931 16.4047 38.2693 16.4523C38.2489 16.488 38.2285 16.5255 38.2029 16.5646C37.9528 17.0019 37.6993 17.4408 37.4441 17.8764C37.2144 18.2796 36.9814 18.6794 36.7483 19.0844C36.2481 19.9504 36.2225 20.9593 36.7074 21.844C36.9218 22.2336 37.4935 22.3936 37.8729 22.1469C38.2693 21.8917 38.4088 21.4017 38.1791 20.9797C38.1655 20.9559 38.0753 20.7364 38.1366 20.9168C38.123 20.8691 38.106 20.8232 38.0924 20.7755C38.0702 20.7058 38.0566 20.636 38.043 20.5629C38.0702 20.7364 38.0498 20.6071 38.0532 20.5697C38.0566 20.4999 38.06 20.4234 38.0566 20.3536C38.06 20.5033 38.043 20.4166 38.0566 20.3638C38.0753 20.2906 38.0924 20.2209 38.1128 20.1477C38.1723 19.9436 38.0362 20.2702 38.1434 20.0797C38.2029 19.9708 38.2693 19.8636 38.3323 19.7513C38.6147 19.2613 38.8988 18.7696 39.1812 18.2762C39.3684 17.9529 39.5607 17.6331 39.741 17.3081C40.3059 16.2958 40.18 15.081 39.4382 14.2014C39.1115 13.8118 38.6555 13.5821 38.22 13.3303C37.7061 13.0308 37.1872 12.7365 36.6717 12.437C36.4982 12.335 36.3212 12.2346 36.146 12.1308C36.1187 12.1172 36.0881 12.0985 36.0626 12.0849C36.0184 12.0576 35.8125 11.8824 35.9622 12.0253C35.9197 11.9879 35.8789 11.9487 35.8397 11.9113C35.8023 11.8722 35.6798 11.685 35.7853 11.8586C35.7291 11.765 35.6764 11.6714 35.6202 11.5761C35.7053 11.7259 35.6492 11.6459 35.6356 11.5983C35.6168 11.5353 35.5998 11.4689 35.5828 11.406C35.5369 11.2529 35.5726 11.4128 35.5794 11.4383C35.5624 11.3788 35.5692 11.2988 35.5692 11.2359C35.5692 11.2256 35.5692 11.2154 35.5692 11.2052C35.5692 11.0402 35.5692 10.8769 35.5692 10.7135C35.5692 10.1368 35.5692 9.55488 35.5692 8.97811C35.5692 8.51023 35.5964 8.03725 35.5131 7.57787C35.3327 6.55193 34.448 5.67402 33.4254 5.48686C32.9661 5.4035 32.4931 5.43072 32.0269 5.43072C31.4416 5.43072 30.853 5.43072 30.2728 5.43072C30.1077 5.43072 29.9478 5.43412 29.7879 5.43072C29.7811 5.43072 29.7743 5.43072 29.7675 5.43072C29.7113 5.43072 29.6841 5.42732 29.6314 5.42732C29.4238 5.42391 29.747 5.46304 29.628 5.42391C29.5769 5.4103 29.5208 5.40009 29.468 5.38648C29.4612 5.38308 29.2587 5.30992 29.3847 5.36096C29.5106 5.4137 29.3183 5.32353 29.3115 5.32013C29.2519 5.2878 29.2009 5.25037 29.1448 5.21464C29.3149 5.32353 29.1482 5.21464 29.1124 5.18402C29.0818 5.15339 29.0546 5.11766 29.0223 5.09044C28.8691 4.95093 29.1022 5.22995 28.9916 5.05471C28.9678 5.01728 28.9423 4.97815 28.9185 4.94072C28.9015 4.91179 28.8878 4.88457 28.8691 4.85735C28.7687 4.6787 28.6684 4.50516 28.5663 4.32822C28.2668 3.8127 27.9725 3.29718 27.6696 2.77995C27.4178 2.341 27.1814 1.87141 26.7781 1.54304C25.8866 0.823357 24.7007 0.697454 23.6952 1.25891C22.87 1.71829 22.0619 2.20148 21.2486 2.67107C21.1397 2.73402 21.0291 2.79697 20.9202 2.85652C20.7297 2.96711 21.0121 2.84461 20.8862 2.87693C20.8267 2.89054 20.7722 2.91436 20.7127 2.92968C20.7059 2.92968 20.4796 2.9603 20.6072 2.95009C20.7433 2.93988 20.5034 2.95009 20.5034 2.95009C20.5034 2.95009 20.2635 2.93988 20.3996 2.95009C20.5306 2.9603 20.3009 2.92968 20.2975 2.92968C20.2397 2.91436 20.1801 2.89054 20.1206 2.87693C20.0644 2.85652 20.0746 2.85992 20.1512 2.89054C20.1104 2.87013 20.0644 2.84461 20.0202 2.82079C19.6952 2.64044 19.3754 2.44818 19.0521 2.26103C18.5655 1.9786 18.0772 1.69617 17.5906 1.41544C17.0275 1.09218 16.432 0.840371 15.7599 0.910128C14.8412 1.0003 14.0756 1.50221 13.6128 2.30186C13.3627 2.73061 13.1194 3.15936 12.871 3.58641C12.6243 4.01176 12.381 4.43881 12.1343 4.86416C12.1207 4.88798 12.1053 4.91179 12.0883 4.94072C12.0679 4.97815 12.0441 5.01728 12.0186 5.05131C11.908 5.22995 12.1377 4.95093 11.9879 5.09044C11.9522 5.11766 11.925 5.15339 11.8944 5.18402C11.862 5.21124 11.8314 5.24016 11.7957 5.26739C11.8723 5.20784 11.8859 5.19763 11.8382 5.23336C11.7889 5.25718 11.7447 5.2912 11.6987 5.32013C11.6919 5.32353 11.4997 5.4137 11.6222 5.35756C11.7481 5.30652 11.549 5.38308 11.5422 5.38648C11.4894 5.40009 11.4316 5.4069 11.3823 5.42391C11.2598 5.46304 11.5847 5.42051 11.3789 5.42732C11.3227 5.42732 11.2989 5.43072 11.2427 5.43072C11.2325 5.43072 11.2223 5.43072 11.2121 5.43072C10.2338 5.43752 9.25212 5.43072 8.27382 5.43072C7.49118 5.43072 6.72896 5.67402 6.18281 6.25929C5.65028 6.82586 5.4376 7.53364 5.4376 8.29926C5.4376 9.26905 5.44781 10.2439 5.4376 11.2154C5.4376 11.2222 5.4376 11.2291 5.4376 11.2359C5.4376 11.2954 5.44441 11.3754 5.42739 11.4383C5.4342 11.4094 5.46993 11.2529 5.42399 11.406C5.40698 11.4689 5.38996 11.5319 5.37125 11.5949C5.35764 11.6425 5.30149 11.7259 5.38656 11.5727C5.35423 11.6323 5.32701 11.6918 5.29128 11.748C5.26746 11.7888 5.14496 11.9419 5.27767 11.7888C5.20451 11.8722 5.12795 11.9453 5.04798 12.0219C5.1943 11.8824 4.98844 12.0576 4.9476 12.0814C4.91187 12.1019 4.88125 12.1206 4.84722 12.141C4.40486 12.3979 3.9591 12.6531 3.51673 12.91C3.1067 13.1431 2.69837 13.3796 2.29173 13.6161C1.47847 14.0857 0.983366 14.8802 0.906804 15.816C0.850658 16.4812 1.12288 17.0614 1.44274 17.6212C1.73198 18.1197 2.02121 18.6199 2.30875 19.1218C2.50441 19.4587 2.72389 19.7938 2.89403 20.1477C2.87701 20.1137 2.84809 19.998 2.89062 20.1477C2.91104 20.2209 2.92975 20.2906 2.94677 20.3638C2.96038 20.4166 2.94337 20.5033 2.94677 20.3536C2.94677 20.4234 2.95017 20.4999 2.95357 20.5697C2.95357 20.6071 2.93316 20.7364 2.96038 20.5629C2.95017 20.636 2.93316 20.7058 2.91444 20.7755C2.89743 20.8232 2.88382 20.8691 2.8668 20.9168C2.92975 20.7364 2.83788 20.9559 2.82427 20.9797C2.77153 21.0784 2.71708 21.172 2.66094 21.2689C2.18455 22.0907 1.67583 22.9006 1.23007 23.7428C0.687324 24.767 0.847255 26.009 1.62649 26.8648C1.95826 27.2272 2.41423 27.4501 2.83107 27.6934C3.34319 27.9894 3.85531 28.2855 4.36573 28.5781C4.53587 28.6751 4.7043 28.7721 4.87444 28.8725C4.89826 28.8878 4.91868 28.898 4.9442 28.9116C5.00375 28.9456 5.05819 28.9813 5.11094 29.0222C5.08371 29.0018 4.98844 28.9082 5.09392 29.0154C5.13816 29.0613 5.1841 29.1089 5.23003 29.1549C5.36785 29.3012 5.15687 29.0188 5.25385 29.194C5.28788 29.2485 5.32021 29.3046 5.35423 29.3608C5.37976 29.405 5.39337 29.5003 5.34403 29.3352C5.35083 29.3539 5.45462 29.6415 5.4342 29.6534C5.4308 29.6211 5.42739 29.5904 5.42399 29.5581C5.42739 29.6041 5.4308 29.6449 5.4342 29.6908C5.4342 29.7112 5.4342 29.7402 5.4342 29.7606C5.4342 29.7742 5.4342 29.7844 5.4342 29.798C5.4342 29.9733 5.4342 30.1434 5.4342 30.3169C5.4342 30.9124 5.4342 31.5045 5.4342 32.1C5.4342 32.5696 5.40698 33.046 5.50736 33.5087C5.73364 34.5143 6.62177 35.3564 7.6409 35.5164C8.09687 35.5861 8.55965 35.5623 9.01903 35.5623C9.60771 35.5623 10.1947 35.5623 10.7834 35.5623C10.9331 35.5623 11.0794 35.5623 11.2257 35.5623C11.2529 35.5657 11.2819 35.5623 11.3091 35.5657C11.3295 35.5657 11.435 35.5657 11.4418 35.5759C11.4095 35.5725 11.3789 35.5691 11.3431 35.5657C11.3891 35.5725 11.4316 35.5827 11.4724 35.5929C11.5184 35.6031 11.5592 35.6168 11.6017 35.6321C11.8025 35.6899 11.452 35.5402 11.6358 35.6457C11.6749 35.6661 11.7157 35.6865 11.7515 35.7086C11.7889 35.7325 11.8246 35.7563 11.862 35.7818C11.7753 35.712 11.7719 35.7086 11.8416 35.7665C11.891 35.8124 12.0951 36.0523 11.9777 35.889C12.0152 35.9451 12.0543 35.9996 12.0883 36.0591C12.1087 36.0949 12.1309 36.1289 12.1513 36.1646C12.2517 36.3416 12.3572 36.5219 12.4575 36.7005C12.757 37.2144 13.0564 37.7333 13.3525 38.2488C13.6434 38.7524 13.919 39.2237 14.3988 39.5844C15.2444 40.219 16.4082 40.2428 17.315 39.7341C17.657 39.5436 17.9973 39.3411 18.3358 39.1471C18.819 38.8681 19.2988 38.5891 19.7803 38.3118C19.9011 38.242 20.0236 38.1688 20.1512 38.1059C19.9811 38.1893 20.1937 38.0957 20.2244 38.0889C20.2703 38.0753 20.3197 38.0634 20.3639 38.0532C20.58 38.0021 20.2108 38.0361 20.4268 38.0463C20.4762 38.0497 20.5272 38.0497 20.5732 38.0463C20.7994 38.0429 20.4166 38.0021 20.6361 38.0532C20.6837 38.0634 20.7331 38.0753 20.779 38.0889C20.8097 38.0957 21.0189 38.1893 20.8522 38.1059C20.8964 38.1297 20.9424 38.1518 20.9832 38.1757C21.8152 38.6384 22.6301 39.125 23.4553 39.598C23.5591 39.661 23.6629 39.7273 23.7752 39.7835C24.2941 40.0472 24.8436 40.1425 25.417 40.0659C26.2728 39.9468 26.9772 39.4177 27.4008 38.6759C27.8959 37.8235 28.3859 36.9677 28.8793 36.1153C28.9049 36.0727 28.9287 36.0353 28.9491 35.9962C28.9746 35.9621 28.9984 35.923 29.0257 35.889C28.9049 36.0557 29.0359 35.8856 29.0614 35.8618C29.0954 35.826 29.1277 35.8022 29.1584 35.7699C29.2315 35.7086 29.2247 35.712 29.1414 35.7818C29.1754 35.7563 29.2145 35.7325 29.2519 35.712C29.2877 35.6865 29.3251 35.6695 29.3642 35.6457C29.5446 35.5453 29.2009 35.6831 29.4017 35.6321C29.4442 35.6219 29.485 35.6031 29.5276 35.5929C29.548 35.5895 29.5684 35.5827 29.5939 35.5793C29.6875 35.5623 29.6773 35.5589 29.5616 35.5759C29.5905 35.5402 29.7539 35.5657 29.8168 35.5657C30.2728 35.5623 30.7322 35.5657 31.1881 35.5657C31.7087 35.5657 32.2311 35.5657 32.7534 35.5657C33.5428 35.5657 34.3272 35.3003 34.8597 34.6946C35.3735 34.111 35.5658 33.4254 35.5658 32.6632C35.5658 32.117 35.5658 31.5743 35.5658 31.0315C35.5658 30.613 35.5624 30.1927 35.5658 29.7742C35.5658 29.747 35.5658 29.718 35.5692 29.6908C35.5692 29.6704 35.5692 29.65 35.5726 29.6245C35.5794 29.5275 35.5794 29.5377 35.5658 29.6534C35.5624 29.6534 35.593 29.5411 35.5964 29.5241C35.6134 29.4611 35.6356 29.4016 35.656 29.3386C35.6066 29.5003 35.6202 29.405 35.6492 29.3642C35.6798 29.308 35.7155 29.2485 35.7461 29.194C35.8431 29.0188 35.6322 29.3012 35.77 29.1583C35.8159 29.1089 35.8652 29.0647 35.9061 29.0154C35.9384 28.9881 36.032 28.9218 35.8891 29.0222C35.9452 28.9847 36.0031 28.9456 36.0592 28.9116C36.0983 28.8912 36.1358 28.8691 36.1749 28.8452C37.0239 28.3552 37.8797 27.8669 38.7287 27.3701C39.5504 26.8937 40.0694 26.043 40.0966 25.0903C40.1204 24.4437 39.8567 23.8925 39.5436 23.3497C39.0877 22.5603 38.6317 21.7709 38.1757 20.9797C37.9528 20.5969 37.3965 20.4268 37.0103 20.6769C36.6241 20.9287 36.4675 21.4289 36.7074 21.844Z" fill="white"/>
</svg>
