<svg width="49" height="49" viewBox="0 0 49 49" fill="none" xmlns="http://www.w3.org/2000/svg">
<path d="M18.4311 31.8926C18.4414 32.779 18.8616 33.6042 19.663 34.0364C20.153 34.3001 20.7212 34.4294 21.281 34.4396C21.8543 34.4498 22.4294 34.4396 23.0028 34.4396C24.3809 34.4396 25.7556 34.4396 27.1303 34.4396C27.7922 34.4396 28.454 34.4396 29.1108 34.4396C29.5957 34.4396 30.0891 34.4634 30.5689 34.4328C31.5046 34.3732 32.3026 33.9564 32.8691 33.2078C33.1584 32.8216 33.371 32.3554 33.4714 31.8807C33.6535 31.0147 33.7641 30.1232 33.907 29.2503C34.0567 28.3384 34.2064 27.4265 34.3493 26.5111C34.4225 26.0551 34.4957 25.5992 34.5637 25.1432C34.6369 24.677 34.7322 24.2074 34.6998 23.731C34.6556 22.9858 34.3868 22.2457 33.7913 21.7574C33.3251 21.3746 32.779 21.1653 32.1801 21.0854C31.6339 21.0088 31.0674 21.048 30.5178 21.048C29.4136 21.048 28.3077 21.048 27.2035 21.048C27.1235 21.048 27.0402 21.048 26.9636 21.048C27.246 21.3304 27.5319 21.6145 27.8126 21.9003C27.8126 21.264 27.8126 20.626 27.8126 19.9931C27.8126 19.2513 27.8381 18.5146 27.7394 17.7796C27.5965 16.7077 27.2137 15.6682 26.3035 15.0199C25.742 14.6269 25.0053 14.501 24.3299 14.581C23.8484 14.6405 23.3941 14.7562 22.9551 14.9689C22.6897 15.0965 22.5298 15.4198 22.5298 15.7022C22.5298 16.2109 22.5298 16.7145 22.5298 17.2198C22.5298 17.8221 22.5298 18.4244 22.5298 19.0216C22.5298 19.2734 22.5298 19.5201 22.5128 19.7668C22.4992 19.9625 22.5468 19.566 22.5162 19.7566C22.506 19.8093 22.4992 19.8604 22.489 19.9131C22.4634 20.0322 22.4328 20.1462 22.3988 20.2619C22.3733 20.3419 22.346 20.4218 22.3171 20.4984C22.2559 20.6685 22.4056 20.313 22.329 20.4763C22.3069 20.5222 22.2865 20.5682 22.2661 20.609C22.1759 20.7944 22.067 20.9748 21.9462 21.1415C21.9241 21.1739 21.9003 21.2045 21.8765 21.2351C21.8135 21.3304 22.0194 21.065 21.9105 21.1943C21.8509 21.264 21.7931 21.3372 21.7301 21.4035C21.594 21.5482 21.4511 21.6843 21.3048 21.8136C21.2452 21.8629 21.1908 21.9072 21.1312 21.9565C21.0019 22.0637 21.3014 21.834 21.1653 21.9276C21.1312 21.9565 21.0972 21.9803 21.0615 22.0041C20.9118 22.113 20.762 22.21 20.6055 22.3036C20.3486 22.4567 20.0832 22.5962 19.8127 22.7187C19.7361 22.7527 19.503 22.8293 19.8127 22.7221C19.7497 22.7425 19.6868 22.7698 19.6272 22.7953C19.5234 22.8361 19.4231 22.8718 19.3176 22.9059C19.2308 22.9382 19.144 22.9654 19.0573 22.9892C18.6949 23.0845 18.4311 23.4384 18.4311 23.811C18.4311 24.7195 18.4311 25.6247 18.4311 26.5332C18.4311 27.9845 18.4311 29.4307 18.4311 30.882C18.4311 31.2172 18.4311 31.554 18.4311 31.8926C18.4311 32.3367 18.8242 32.762 19.2835 32.7416C19.7463 32.7195 20.1359 32.369 20.1359 31.8926C20.1359 30.9841 20.1359 30.0755 20.1359 29.167C20.1359 27.7191 20.1359 26.2678 20.1359 24.8199C20.1359 24.4831 20.1359 24.1445 20.1359 23.811C19.9267 24.0866 19.7191 24.3572 19.5098 24.6328C20.5222 24.364 21.4868 23.8314 22.3035 23.1883C22.9892 22.6456 23.5421 21.9531 23.8807 21.1449C24.3367 20.0628 24.2363 18.8872 24.2363 17.7387C24.2363 17.0599 24.2363 16.381 24.2363 15.7022C24.0968 15.9489 23.9539 16.1939 23.8143 16.4406C23.8314 16.4304 23.8484 16.4236 23.8671 16.4151C23.9334 16.3776 23.5915 16.524 23.7378 16.4712C23.7684 16.4576 23.8007 16.444 23.8314 16.4338C24.0066 16.3708 24.1835 16.3215 24.3639 16.2875C24.4166 16.2773 24.6259 16.2449 24.4302 16.2704C24.2312 16.2977 24.466 16.2704 24.5204 16.2653C24.6429 16.2585 24.7671 16.2551 24.893 16.2653C24.9202 16.2704 24.9492 16.2739 24.9764 16.2739C25.0887 16.2807 24.7263 16.2279 24.8726 16.2619C24.9424 16.2773 25.0121 16.2909 25.0819 16.3079C25.1431 16.3249 25.2061 16.3606 25.2724 16.3742C25.2316 16.364 25.0564 16.2705 25.1789 16.3351C25.2129 16.3538 25.2486 16.3708 25.2826 16.3912C25.3456 16.427 25.4051 16.478 25.4681 16.5103C25.4051 16.478 25.2928 16.364 25.4085 16.4678C25.4358 16.495 25.4647 16.5206 25.4919 16.5478C25.5481 16.6039 25.5957 16.6805 25.6552 16.7332C25.6518 16.7298 25.5225 16.5444 25.5889 16.6448C25.5991 16.6635 25.6093 16.6771 25.6212 16.6941C25.6484 16.7366 25.6791 16.7809 25.7046 16.8268C25.7522 16.9034 25.788 16.9867 25.8288 17.0667C25.8883 17.1841 25.759 16.8744 25.822 17.0497C25.8441 17.1075 25.8645 17.1671 25.8849 17.23C25.9649 17.4699 26.0176 17.7166 26.0551 17.9684C26.0942 18.1845 26.0483 17.8527 26.0653 18.0161C26.0738 18.0926 26.0806 18.1658 26.0874 18.2424C26.0976 18.3717 26.1044 18.501 26.1078 18.632C26.1078 18.6949 26.1078 18.7579 26.1078 18.8208C26.1078 19.1509 26.1078 19.481 26.1078 19.8127C26.1078 20.5086 26.1078 21.2011 26.1078 21.8969C26.1078 22.3563 26.4974 22.7493 26.9602 22.7493C28.4915 22.7493 30.0261 22.7885 31.5574 22.7459C31.6697 22.7425 31.7836 22.7425 31.8993 22.7527C31.9368 22.7561 31.9793 22.7629 32.0167 22.7629C32.1137 22.7732 31.7343 22.7187 31.9436 22.7561C32.0406 22.7732 32.1426 22.7953 32.2362 22.8225C32.2787 22.8327 32.323 22.8463 32.3689 22.865C32.4557 22.8923 32.5884 22.9824 32.3366 22.8429C32.4421 22.9025 32.5459 22.9518 32.6497 23.0148C32.8113 23.1151 32.505 22.8786 32.6258 22.9926C32.665 23.0318 32.7126 23.0692 32.7517 23.1117C32.7858 23.1458 32.8181 23.1951 32.8555 23.2291C32.6922 23.0879 32.7619 23.0947 32.8113 23.1781C32.8283 23.2087 32.8487 23.241 32.8657 23.2751C32.8793 23.2955 32.8912 23.321 32.9015 23.3414C32.9814 23.4809 32.8555 23.3584 32.8793 23.2853C32.8725 23.3142 32.9389 23.4554 32.9491 23.4877C32.9678 23.5541 32.9746 23.6239 32.9916 23.6851C33.0223 23.7974 32.9746 23.4554 32.9848 23.6307C32.9882 23.6783 32.9916 23.731 32.995 23.7838C33.0018 23.9641 33.0155 24.1836 32.9712 24.3606C33.0291 24.1343 32.9559 24.4405 32.9457 24.5035C32.9321 24.6073 32.9151 24.7127 32.8981 24.8165C32.7585 25.7217 32.6122 26.6234 32.4659 27.5285C32.2668 28.7706 32.0593 30.0092 31.8534 31.2478C31.8228 31.4298 31.7836 31.6034 31.7207 31.7769C31.7071 31.8228 31.6867 31.8705 31.6697 31.9198C31.7666 31.6238 31.7105 31.8228 31.6731 31.8994C31.6169 32.0066 31.554 32.1138 31.4876 32.2159C31.4672 32.2431 31.4281 32.2822 31.4178 32.3128C31.4212 32.3026 31.5608 32.1461 31.4774 32.2329C31.4281 32.2856 31.3838 32.3367 31.3345 32.386C31.2902 32.4319 31.2103 32.4762 31.1745 32.5289C31.2681 32.3928 31.3107 32.4353 31.2409 32.4728C31.195 32.5017 31.1507 32.5323 31.1048 32.5595C31.0674 32.5817 30.8343 32.6957 30.9738 32.6327C31.1082 32.5698 30.9585 32.6327 30.9347 32.6429C30.9006 32.6548 30.8683 32.665 30.8343 32.6752C30.8156 32.6786 30.5757 32.7161 30.5723 32.7314C30.5859 32.6889 30.7747 32.7195 30.5978 32.7229C30.528 32.7263 30.4549 32.7314 30.3817 32.7314C30.1962 32.7348 30.0057 32.7314 29.8168 32.7314C29.2639 32.7314 28.7143 32.7314 28.1614 32.7314C26.8105 32.7314 25.4613 32.7314 24.1104 32.7314C23.2291 32.7314 22.3494 32.7314 21.4715 32.7314C21.3082 32.7314 21.1517 32.7263 20.9883 32.7127C20.8743 32.7025 21.2606 32.7586 21.0547 32.7195C21.0087 32.7093 20.9611 32.7025 20.9118 32.6923C20.7825 32.6616 20.6617 32.6191 20.5392 32.5783C20.4218 32.5391 20.6378 32.6191 20.6378 32.6191C20.6191 32.5987 20.5647 32.5851 20.5358 32.5698C20.4847 32.5425 20.4354 32.5153 20.386 32.483C20.1921 32.3554 20.4949 32.5953 20.3724 32.4728C20.352 32.4558 20.2397 32.3128 20.2193 32.3128C20.2857 32.3128 20.3384 32.4932 20.2652 32.369C20.2465 32.3367 20.2261 32.306 20.2091 32.2754C20.0934 32.09 20.2584 32.449 20.1887 32.2295C20.1666 32.1665 20.1632 32.0372 20.1291 31.9896C20.1393 32.0066 20.1427 32.2091 20.1393 32.0593C20.1393 32.0032 20.1325 31.9436 20.1325 31.8892C20.1291 31.4434 19.7463 31.0147 19.2801 31.0351C18.8276 31.0572 18.4243 31.4111 18.4311 31.8926Z" fill="white"/>
<path d="M18.6387 32.425C17.7523 32.425 16.8642 32.425 15.9777 32.425C15.9284 32.425 15.862 32.4131 15.8178 32.425H15.7923C15.8025 32.396 15.9948 32.5015 15.8382 32.4318C15.9488 32.4828 15.9624 32.4862 15.8825 32.4454C15.908 32.4658 15.9352 32.4862 15.9624 32.5083C15.8212 32.3824 16.0441 32.6615 15.9556 32.493C15.9675 32.5185 16.022 32.6751 15.9845 32.5288C16.1853 33.2842 15.9948 32.6427 16.0016 32.6291C16.0084 32.6189 16.0016 32.5883 16.0016 32.573C16.0152 32.3297 16.0016 32.0796 16.0016 31.8363C16.0016 29.6993 16.0016 27.5658 16.0016 25.4289C16.0016 25.046 16.0016 24.6632 16.0016 24.2804C16.0016 24.1766 16.0016 24.0711 16.0016 23.9708C16.0016 23.8772 16.022 23.8176 15.9845 23.9708C16.0322 23.787 15.8723 24.1103 15.9845 23.9572C15.9675 23.981 15.8552 24.0865 15.9624 23.9946C15.9352 24.0167 15.908 24.0371 15.8825 24.0575C15.9488 24.0235 15.9488 24.0201 15.8859 24.0507C15.8723 24.0575 15.8552 24.0643 15.8416 24.0711C15.9318 24.0507 15.9182 24.0507 15.7923 24.0746C15.7923 24.0797 15.8791 24.0746 15.8825 24.0746C16.0815 24.0831 16.2806 24.0746 16.478 24.0746C17.0462 24.0746 17.6128 24.0746 18.1759 24.0746C18.3018 24.0746 18.5009 24.1137 18.6217 24.0746C18.6217 24.0746 18.6387 24.0797 18.6387 24.0746C18.6047 24.0711 18.5707 24.0643 18.5349 24.0575C18.6081 24.0797 18.6115 24.0797 18.5451 24.0507C18.5315 24.0439 18.5145 24.0371 18.5009 24.0303C18.5775 24.0797 18.5707 24.0643 18.4686 23.9946C18.5775 24.0865 18.4652 23.981 18.4482 23.9572C18.5587 24.1069 18.4022 23.787 18.4482 23.9708C18.4482 23.9674 18.438 23.8602 18.4311 23.8738C18.4124 23.901 18.4311 24.0031 18.4311 24.0371C18.4311 24.163 18.4311 24.2872 18.4311 24.4131C18.4311 25.3591 18.4311 26.3102 18.4311 27.2596C18.4311 28.408 18.4311 29.553 18.4311 30.7015C18.4311 31.1336 18.4311 31.5607 18.4311 31.9928C18.4311 32.1868 18.3954 32.4199 18.4311 32.6121C18.438 32.6496 18.392 32.738 18.4482 32.5288C18.409 32.6751 18.4652 32.5185 18.4754 32.493C18.3886 32.6615 18.6115 32.3824 18.4686 32.5049C18.4941 32.4862 18.6251 32.4029 18.5009 32.4692C18.5315 32.4556 18.5622 32.442 18.5945 32.4284C18.5009 32.4522 18.5145 32.4488 18.6387 32.425C18.1947 32.4454 17.7659 32.8027 17.7863 33.2774C17.8084 33.7214 18.1623 34.1536 18.6387 34.1298C19.5336 34.0872 20.1359 33.405 20.1359 32.5254C20.1359 32.2293 20.1359 31.9299 20.1359 31.6338C20.1359 30.5058 20.1359 29.3795 20.1359 28.2515C20.1359 27.1234 20.1359 25.9971 20.1359 24.8691C20.1359 24.5731 20.1359 24.2736 20.1359 23.9776C20.1359 23.1082 19.5336 22.4021 18.6387 22.3732C17.7234 22.3425 16.7978 22.3664 15.8825 22.3732C15.0062 22.3766 14.3172 22.9959 14.2968 23.8942C14.2934 24.1239 14.2968 24.3536 14.2968 24.5867C14.2968 26.824 14.2968 29.063 14.2968 31.3004C14.2968 31.6593 14.2968 32.02 14.2968 32.3824C14.2968 32.8877 14.3869 33.3641 14.78 33.7333C15.27 34.1927 15.9046 34.1298 16.5171 34.1298C17.1041 34.1298 17.6893 34.1298 18.278 34.1298C18.3988 34.1298 18.5179 34.1298 18.6387 34.1298C19.0845 34.1298 19.5132 33.7401 19.4928 33.2774C19.4707 32.818 19.1168 32.425 18.6387 32.425Z" fill="white"/>
<path d="M40.7074 25.844C41.1736 26.6471 41.6364 27.4552 42.106 28.2617C42.1587 28.3553 42.2166 28.4505 42.2693 28.5475C42.2931 28.5969 42.305 28.6105 42.3289 28.6581C42.4088 28.8112 42.3255 28.6343 42.3186 28.6309C42.3918 28.687 42.3391 28.8674 42.3986 28.9269C42.3952 28.8912 42.3918 28.8572 42.3884 28.818C42.3918 28.8606 42.3952 28.898 42.3986 28.9405C42.3986 28.9797 42.3986 29.0205 42.3986 29.063C42.3986 29.0971 42.4054 29.2094 42.3884 29.24C42.3918 29.2043 42.3952 29.1668 42.3986 29.1328C42.3918 29.1702 42.385 29.2128 42.3731 29.2502C42.3629 29.2893 42.3527 29.3268 42.3425 29.3659C42.3357 29.3829 42.3289 29.4033 42.322 29.4203C42.2863 29.5071 42.2931 29.4935 42.3391 29.3829C42.3493 29.4391 42.2132 29.6024 42.1893 29.6432C42.0992 29.7827 42.2098 29.6194 42.2098 29.616C42.2064 29.6466 42.1094 29.7266 42.0856 29.7487C42.0753 29.7589 41.9937 29.8321 41.9937 29.8321C42.0856 29.7623 42.0924 29.7555 42.0158 29.81C41.9869 29.8287 41.9597 29.8457 41.9358 29.8627C41.8372 29.9188 41.7402 29.975 41.6432 30.0294C40.8316 30.499 40.0082 30.9584 39.2034 31.4399C38.3646 31.9401 37.8712 32.8282 37.8644 33.8031C37.8593 34.2472 37.8644 34.6963 37.8644 35.1421C37.8644 35.6644 37.8644 36.1868 37.8644 36.7074C37.8644 36.7601 37.8678 36.8129 37.8644 36.8656C37.8644 36.8724 37.8644 36.8792 37.8644 36.886C37.8644 36.9371 37.8559 36.9898 37.8559 37.0426C37.8491 37.1089 37.8525 37.0834 37.8712 36.9694C37.8593 37.0068 37.8525 37.046 37.8423 37.0868C37.8355 37.1259 37.8253 37.1634 37.8117 37.2025C37.8049 37.2229 37.8015 37.2399 37.7947 37.2586C37.7623 37.3488 37.7657 37.3352 37.8151 37.2195C37.8253 37.2825 37.6994 37.4254 37.6687 37.4781C37.6126 37.5717 37.6858 37.5053 37.696 37.4458C37.6892 37.4781 37.6194 37.5326 37.599 37.5547C37.565 37.5887 37.5258 37.6193 37.4952 37.6551C37.3659 37.7793 37.6228 37.5819 37.4816 37.6653C37.4289 37.6959 37.2859 37.8218 37.223 37.8116C37.2553 37.798 37.2859 37.7844 37.3166 37.7691C37.2791 37.7844 37.2434 37.798 37.206 37.8082C37.1668 37.8218 37.1294 37.832 37.0903 37.8422C37.0699 37.8456 37.0494 37.849 37.0324 37.8524C36.9372 37.8711 36.9525 37.8711 37.0733 37.8524C37.0597 37.8643 36.9593 37.8609 36.9525 37.8609C36.9235 37.8609 36.8963 37.8609 36.8691 37.8609C36.7194 37.8643 36.5662 37.8609 36.4199 37.8609C35.8347 37.8609 35.2528 37.8609 34.6692 37.8609C34.283 37.8609 33.8832 37.8354 33.4952 37.8813C32.5816 37.9885 31.8466 38.5041 31.3872 39.2969C30.8972 40.1425 30.4123 40.9915 29.9223 41.8371C29.9053 41.8694 29.8832 41.9 29.8662 41.9324C29.8424 41.9698 29.8168 42.0327 29.7794 42.0634C29.9087 41.963 29.8356 41.9987 29.7964 42.0361C29.7522 42.0787 29.7062 42.1229 29.6637 42.1688C29.5327 42.305 29.81 42.0821 29.6467 42.1859C29.6093 42.2097 29.4425 42.3492 29.3864 42.3356C29.4204 42.322 29.4493 42.3118 29.4834 42.2964C29.4527 42.3084 29.4238 42.3186 29.3966 42.3288C29.3507 42.339 29.303 42.356 29.2537 42.3696C29.2197 42.3781 29.0767 42.4428 29.1907 42.3883C29.2962 42.3356 29.1771 42.3883 29.1278 42.3917C29.0767 42.3951 29.0274 42.3951 28.9746 42.3917C28.944 42.3917 28.9168 42.3917 28.8845 42.3883C28.7909 42.3781 28.8045 42.3815 28.9304 42.3951C28.91 42.4121 28.6514 42.3356 28.6378 42.3152C28.6412 42.3186 28.8147 42.4053 28.665 42.3254C28.6174 42.3016 28.6003 42.2896 28.551 42.2658C28.5272 42.2488 28.4949 42.2318 28.471 42.2165C28.2941 42.1161 28.1154 42.0123 27.9419 41.9102C27.4366 41.6193 26.9296 41.3301 26.4243 41.0374C25.9785 40.7805 25.5378 40.4879 25.0223 40.3943C24.3707 40.2786 23.7344 40.3824 23.1559 40.7039C23.0589 40.7584 22.9585 40.8179 22.8616 40.8741C22.3665 41.1599 21.8765 41.4441 21.3814 41.7265C21.0717 41.9068 20.7654 42.0923 20.4524 42.2658C20.4082 42.2896 20.3588 42.3152 20.3095 42.339C20.2023 42.3985 20.5051 42.2794 20.3095 42.3322C20.272 42.3458 20.2329 42.356 20.1921 42.3662C20.1734 42.373 20.1529 42.3781 20.1325 42.3815C20.039 42.3985 20.056 42.3985 20.1819 42.3815C20.1155 42.4189 19.9522 42.3951 19.879 42.3917C19.8671 42.3917 19.7769 42.3917 19.7599 42.3815C19.8892 42.3985 19.9062 42.3985 19.8093 42.3815C19.7803 42.3781 19.7531 42.3696 19.7225 42.3594C19.6766 42.3492 19.6272 42.3322 19.5796 42.3186C19.4043 42.2658 19.6732 42.3917 19.5898 42.322C19.5268 42.2658 19.4077 42.2063 19.3312 42.1654C19.2308 42.1127 19.4741 42.3016 19.3431 42.1654C19.3108 42.1365 19.2801 42.1093 19.2512 42.0821C19.2376 42.0634 19.224 42.0497 19.2104 42.0327C19.1508 41.963 19.1576 41.9732 19.2274 42.06C19.2172 42.0634 19.127 41.9102 19.1236 41.9C18.6472 41.1072 18.1981 40.2956 17.7353 39.496C17.4001 38.9209 17.0105 38.3969 16.381 38.1178C15.8246 37.8711 15.2785 37.8609 14.683 37.8609C14.1045 37.8609 13.5209 37.8609 12.9391 37.8609C12.7162 37.8609 12.4933 37.8609 12.2704 37.8609C12.2262 37.8609 12.1768 37.8609 12.1309 37.8609C12.1173 37.8609 12.1003 37.8609 12.0867 37.8609C12.0475 37.8558 11.9574 37.8711 11.9301 37.849C12.0543 37.8677 12.0697 37.8711 11.9744 37.8524C11.954 37.8456 11.9369 37.8422 11.9165 37.8388C11.857 37.8252 11.8008 37.8048 11.7413 37.7878C11.5814 37.7418 11.7804 37.8082 11.7838 37.8082C11.7209 37.8184 11.5814 37.6959 11.5269 37.6619C11.3585 37.5649 11.6477 37.7912 11.5116 37.6551C11.4844 37.6261 11.4537 37.5989 11.4282 37.5751C11.4044 37.5496 11.3142 37.473 11.3108 37.4424C11.3312 37.4696 11.3483 37.4951 11.3687 37.5224C11.3483 37.4917 11.3278 37.4594 11.3074 37.4254C11.2785 37.3828 11.2581 37.342 11.2343 37.2961C11.2275 37.2893 11.2241 37.2825 11.2207 37.2722C11.1781 37.1889 11.1849 37.2025 11.2343 37.3131C11.1815 37.2757 11.1645 37.08 11.1509 37.0255C11.105 36.8571 11.1509 37.0664 11.1509 37.0698C11.1288 37.0426 11.1441 36.9201 11.1441 36.8826C11.1441 36.8758 11.1441 36.8656 11.1441 36.8571C11.1356 36.4199 11.1441 35.9843 11.1441 35.5453C11.1441 35.0162 11.1441 34.4871 11.1441 33.9596C11.1441 33.1685 10.9246 32.425 10.3495 31.8533C10.0127 31.5199 9.57031 31.3038 9.16368 31.0673C8.65156 30.7712 8.13944 30.4786 7.62903 30.1826C7.4725 30.0924 7.31597 30.0022 7.15774 29.912C7.12031 29.8865 7.08288 29.8661 7.04375 29.8457C7.03694 29.8389 6.87361 29.7164 6.97739 29.7997C7.08288 29.8865 6.92975 29.7555 6.92125 29.7487C6.88382 29.713 6.85149 29.6721 6.81406 29.6364C6.77663 29.5871 6.78684 29.6058 6.85149 29.6926C6.82767 29.6568 6.80725 29.6262 6.78344 29.5922C6.76132 29.5564 6.7409 29.5224 6.72389 29.4867C6.71368 29.4697 6.70347 29.4527 6.69156 29.4339C6.65413 29.3506 6.65753 29.3659 6.70687 29.4765C6.65073 29.4135 6.64392 29.2672 6.6184 29.1906C6.59118 29.0903 6.57416 29.1668 6.6184 29.24C6.59798 29.2043 6.60819 29.1005 6.60819 29.0596C6.60819 29.0205 6.60819 28.9797 6.60819 28.9405C6.6116 28.898 6.615 28.8572 6.6184 28.818C6.615 28.8538 6.6116 28.8878 6.60819 28.9269C6.59118 28.9065 6.66094 28.6479 6.68816 28.6275C6.67455 28.6581 6.66434 28.687 6.65073 28.7177C6.66774 28.6768 6.68476 28.6377 6.70687 28.6037C6.72048 28.5713 6.72729 28.5645 6.7375 28.5441C6.75451 28.5118 6.77663 28.4778 6.79364 28.4471C7.28364 27.6016 7.77534 26.7594 8.25854 25.9087C8.75534 25.0461 8.78767 24.0303 8.29597 23.149C8.11222 22.8121 7.91316 22.4821 7.7192 22.1469C7.44357 21.6671 7.16625 21.1873 6.88722 20.7058C6.83107 20.6122 6.77663 20.5153 6.72048 20.4183C6.69837 20.3758 6.66434 20.323 6.65073 20.2754C6.69837 20.4659 6.67455 20.3281 6.66094 20.2754C6.64392 20.226 6.63712 20.175 6.6184 20.1256C6.56396 19.9453 6.6116 20.2618 6.615 20.1427C6.6184 20.0525 6.60479 19.9623 6.60819 19.8721C6.6116 19.8534 6.6116 19.833 6.615 19.8126C6.62691 19.719 6.6235 19.7326 6.60819 19.8602C6.59798 19.8534 6.64392 19.7003 6.64732 19.6867C6.66094 19.6459 6.67455 19.5472 6.70687 19.5166C6.69837 19.5234 6.6116 19.6969 6.69156 19.5574C6.7409 19.4774 6.78344 19.3634 6.85149 19.3005C6.71028 19.4332 6.81746 19.3532 6.8566 19.3107C6.89062 19.2733 6.93316 19.2409 6.96719 19.2035C7.1033 19.064 6.8634 19.263 6.96719 19.2001C7.01312 19.1746 7.05396 19.1439 7.09989 19.1167C7.19687 19.0572 7.29045 19.0044 7.38913 18.95C7.87573 18.6676 8.36573 18.3851 8.85743 18.0993C9.17389 17.9189 9.49375 17.742 9.8068 17.5531C10.649 17.0495 11.1356 16.158 11.1441 15.1797C11.1475 14.2099 11.1441 13.235 11.1441 12.2635C11.1441 12.2193 11.1441 12.17 11.1441 12.124C11.1441 12.0968 11.1441 12.073 11.1441 12.0475C11.1441 12.027 11.1475 12.0066 11.1475 11.9862C11.1543 11.8875 11.1543 11.9011 11.1356 12.027C11.122 11.9964 11.1679 11.8773 11.1781 11.8501C11.1883 11.8042 11.2173 11.7565 11.2241 11.7072C11.2377 11.6 11.1254 11.8773 11.2207 11.7208C11.2547 11.6612 11.3108 11.4979 11.3738 11.4707C11.3142 11.4979 11.2717 11.5813 11.3483 11.5047C11.3908 11.4639 11.4282 11.4179 11.4708 11.3805C11.4742 11.3771 11.5405 11.3039 11.5575 11.3039C11.4606 11.3737 11.4503 11.3839 11.5269 11.3312C11.5507 11.3142 11.5745 11.3005 11.5984 11.2818C11.6409 11.258 11.6868 11.2376 11.7277 11.2121C11.8876 11.1185 11.6069 11.2308 11.7141 11.2172C11.8076 11.2019 11.9131 11.161 12.0067 11.1355C12.1275 11.1049 11.7906 11.144 11.9931 11.1406C12.0339 11.1355 12.0765 11.1355 12.1173 11.1355C12.1275 11.1355 12.1394 11.1355 12.1496 11.1355C12.3129 11.1321 12.4763 11.1355 12.6396 11.1355C13.2181 11.1355 13.7983 11.1355 14.3767 11.1355C14.8293 11.1355 15.2887 11.161 15.7327 11.0845C16.5613 10.9484 17.2198 10.392 17.6264 9.68082C17.885 9.23676 18.1419 8.7944 18.3988 8.34863C18.6285 7.94541 18.8616 7.54218 19.0947 7.13725C19.127 7.0862 19.161 7.03686 19.19 6.98412C19.2274 6.92117 19.2104 6.88714 19.1712 7.00624C19.1866 6.9637 19.2631 6.90075 19.2972 6.87013C19.3074 6.85992 19.3873 6.79016 19.3873 6.78676C19.2937 6.85652 19.2835 6.86672 19.3601 6.81058C19.3737 6.80037 19.3907 6.78676 19.4077 6.77655C19.4605 6.74422 19.5132 6.717 19.566 6.68468C19.7038 6.60471 19.5302 6.69148 19.5234 6.69999C19.5864 6.64044 19.7327 6.63704 19.8093 6.61152C19.9998 6.55367 19.6204 6.61152 19.8195 6.60471C19.8603 6.60471 19.8994 6.60131 19.9403 6.60131C19.9998 6.60131 20.0594 6.60471 20.1223 6.60471C20.2925 6.61152 19.9556 6.55707 20.1325 6.61152C20.1853 6.62683 20.2329 6.63704 20.2823 6.65065C20.4524 6.70339 20.2789 6.66086 20.2857 6.64384C20.2857 6.64044 20.4524 6.72721 20.4558 6.73061C20.4949 6.75103 20.5256 6.77145 20.5647 6.79357C20.7416 6.89395 20.9186 6.99773 21.1006 7.10322C21.6042 7.39245 22.1095 7.68339 22.6132 7.97603C23.1151 8.26527 23.5847 8.5477 24.1733 8.62426C24.9202 8.72464 25.5617 8.46093 26.1878 8.09513C26.9925 7.63235 27.7888 7.13384 28.6106 6.69999C28.631 6.68808 28.648 6.67787 28.665 6.66766C28.7535 6.63023 28.745 6.63363 28.6378 6.68127C28.648 6.66766 28.7484 6.64384 28.7569 6.64384C28.7773 6.63704 28.9168 6.58429 28.9338 6.60131C28.9338 6.60131 28.7109 6.61492 28.8845 6.60471C28.99 6.60131 29.0869 6.60131 29.1873 6.60471C29.3728 6.61152 29.0699 6.55707 29.1669 6.60471C29.2265 6.63363 29.3098 6.63704 29.3728 6.65745C29.3864 6.66426 29.4664 6.68127 29.4834 6.69999C29.4527 6.68468 29.4204 6.67107 29.3898 6.65745C29.4272 6.67447 29.4629 6.69488 29.4936 6.7136C29.5327 6.73402 29.5633 6.75443 29.5991 6.77655C29.6161 6.78676 29.6331 6.79697 29.6501 6.81058C29.7233 6.86332 29.7131 6.85652 29.6195 6.78676C29.6637 6.79357 29.8253 6.96711 29.839 7.00624C29.8356 6.99433 29.7301 6.8412 29.8168 6.98412C29.8424 7.02666 29.8628 7.05048 29.8832 7.09301C30.0823 7.41968 30.266 7.74975 30.4549 8.07811C30.7356 8.56471 31.018 9.05131 31.297 9.5362C31.3447 9.62298 31.394 9.71315 31.4468 9.79992C31.77 10.3393 32.2464 10.7323 32.8317 10.962C33.3251 11.1542 33.8406 11.1321 34.3595 11.1321C34.9397 11.1321 35.525 11.1321 36.1103 11.1321C36.3247 11.1321 36.5407 11.1321 36.7568 11.1321C36.7993 11.1321 36.8402 11.1321 36.8827 11.1321C36.9269 11.1355 36.9729 11.1406 37.0137 11.1406C37.1924 11.1406 36.9729 11.1287 36.9729 11.1287C37.0069 11.1117 37.143 11.1678 37.1787 11.178C37.2128 11.1883 37.2995 11.1985 37.32 11.2274C37.2893 11.2121 37.2587 11.1985 37.2264 11.1849C37.2553 11.1985 37.2791 11.2121 37.3064 11.2274C37.3489 11.2512 37.3897 11.2716 37.4357 11.3005C37.4459 11.3074 37.6024 11.4179 37.4918 11.3346C37.3795 11.2478 37.5292 11.3703 37.5394 11.3805C37.5752 11.4145 37.6058 11.4503 37.6415 11.4843C37.6483 11.4911 37.6551 11.4979 37.6619 11.5047C37.7215 11.5779 37.7147 11.5643 37.6381 11.4707C37.6619 11.4809 37.7215 11.5949 37.7351 11.617C37.7487 11.6442 37.8219 11.7446 37.8151 11.7735C37.8151 11.7735 37.7487 11.5745 37.7981 11.7344C37.8185 11.8042 37.8287 11.9709 37.8712 12.027C37.8049 11.9403 37.8559 11.8841 37.8644 12.0168C37.8678 12.0475 37.8678 12.0764 37.8678 12.1104C37.8678 12.124 37.8678 12.1393 37.8678 12.1495C37.8712 13.1193 37.8678 14.0908 37.8678 15.0589C37.8678 15.8552 38.1077 16.631 38.71 17.1839C39.0605 17.5089 39.5028 17.7284 39.9163 17.9649C40.4182 18.2558 40.9218 18.5451 41.4237 18.8377C41.57 18.9211 41.7198 19.0044 41.8627 19.0878C41.9137 19.1201 41.9631 19.1542 42.0158 19.1831C42.1893 19.2835 41.9035 19.0606 42.043 19.2035C42.0702 19.2341 42.1026 19.2596 42.1298 19.2903C42.1655 19.3243 42.3186 19.4468 42.1587 19.3005C42.1961 19.3396 42.2319 19.4043 42.2557 19.4536C42.2829 19.4927 42.2965 19.5506 42.3289 19.5863C42.3986 19.6663 42.2727 19.3975 42.3255 19.5727C42.3391 19.6169 42.4292 19.8364 42.402 19.8602C42.4054 19.8568 42.3918 19.6765 42.3952 19.8126C42.3986 19.8721 42.402 19.9334 42.402 19.9929C42.402 20.0355 42.3986 20.0729 42.3952 20.1154C42.385 20.209 42.3884 20.1954 42.402 20.0661C42.3952 20.1086 42.3884 20.1461 42.3765 20.1886C42.3629 20.226 42.3493 20.2652 42.3425 20.306C42.2863 20.4983 42.4054 20.1954 42.3459 20.306C42.322 20.3553 42.2931 20.4047 42.2693 20.4523C42.2489 20.488 42.2285 20.5255 42.2029 20.5646C41.9528 21.0019 41.6993 21.4408 41.4441 21.8764C41.2144 22.2796 40.9814 22.6794 40.7483 23.0844C40.2481 23.9504 40.2225 24.9593 40.7074 25.844C40.9218 26.2336 41.4935 26.3936 41.8729 26.1469C42.2693 25.8917 42.4088 25.4017 42.1791 24.9797C42.1655 24.9559 42.0753 24.7364 42.1366 24.9168C42.123 24.8691 42.106 24.8232 42.0924 24.7755C42.0702 24.7058 42.0566 24.636 42.043 24.5629C42.0702 24.7364 42.0498 24.6071 42.0532 24.5697C42.0566 24.4999 42.06 24.4234 42.0566 24.3536C42.06 24.5033 42.043 24.4166 42.0566 24.3638C42.0753 24.2906 42.0924 24.2209 42.1128 24.1477C42.1723 23.9436 42.0362 24.2702 42.1434 24.0797C42.2029 23.9708 42.2693 23.8636 42.3323 23.7513C42.6147 23.2613 42.8988 22.7696 43.1812 22.2762C43.3684 21.9529 43.5607 21.6331 43.741 21.3081C44.3059 20.2958 44.18 19.081 43.4382 18.2014C43.1115 17.8118 42.6555 17.5821 42.22 17.3303C41.7061 17.0308 41.1872 16.7365 40.6717 16.437C40.4982 16.335 40.3212 16.2346 40.146 16.1308C40.1187 16.1172 40.0881 16.0985 40.0626 16.0849C40.0184 16.0576 39.8125 15.8824 39.9622 16.0253C39.9197 15.9879 39.8789 15.9487 39.8397 15.9113C39.8023 15.8722 39.6798 15.685 39.7853 15.8586C39.7291 15.765 39.6764 15.6714 39.6202 15.5761C39.7053 15.7259 39.6492 15.6459 39.6356 15.5983C39.6168 15.5353 39.5998 15.4689 39.5828 15.406C39.5369 15.2529 39.5726 15.4128 39.5794 15.4383C39.5624 15.3788 39.5692 15.2988 39.5692 15.2359C39.5692 15.2256 39.5692 15.2154 39.5692 15.2052C39.5692 15.0402 39.5692 14.8769 39.5692 14.7135C39.5692 14.1368 39.5692 13.5549 39.5692 12.9781C39.5692 12.5102 39.5964 12.0372 39.5131 11.5779C39.3327 10.5519 38.448 9.67402 37.4254 9.48686C36.9661 9.4035 36.4931 9.43072 36.0269 9.43072C35.4416 9.43072 34.853 9.43072 34.2728 9.43072C34.1077 9.43072 33.9478 9.43412 33.7879 9.43072C33.7811 9.43072 33.7743 9.43072 33.7675 9.43072C33.7113 9.43072 33.6841 9.42732 33.6314 9.42732C33.4238 9.42391 33.747 9.46304 33.628 9.42391C33.5769 9.4103 33.5208 9.40009 33.468 9.38648C33.4612 9.38308 33.2587 9.30992 33.3847 9.36096C33.5106 9.4137 33.3183 9.32353 33.3115 9.32013C33.2519 9.2878 33.2009 9.25037 33.1448 9.21464C33.3149 9.32353 33.1482 9.21464 33.1124 9.18402C33.0818 9.15339 33.0546 9.11766 33.0223 9.09044C32.8691 8.95093 33.1022 9.22995 32.9916 9.05471C32.9678 9.01728 32.9423 8.97815 32.9185 8.94072C32.9015 8.91179 32.8878 8.88457 32.8691 8.85735C32.7687 8.6787 32.6684 8.50516 32.5663 8.32822C32.2668 7.8127 31.9725 7.29718 31.6696 6.77995C31.4178 6.341 31.1814 5.87141 30.7781 5.54304C29.8866 4.82336 28.7007 4.69745 27.6952 5.25891C26.87 5.71829 26.0619 6.20148 25.2486 6.67107C25.1397 6.73402 25.0291 6.79697 24.9202 6.85652C24.7297 6.96711 25.0121 6.84461 24.8862 6.87693C24.8267 6.89054 24.7722 6.91436 24.7127 6.92968C24.7059 6.92968 24.4796 6.9603 24.6072 6.95009C24.7433 6.93988 24.5034 6.95009 24.5034 6.95009C24.5034 6.95009 24.2635 6.93988 24.3996 6.95009C24.5306 6.9603 24.3009 6.92968 24.2975 6.92968C24.2397 6.91436 24.1801 6.89054 24.1206 6.87693C24.0644 6.85652 24.0746 6.85992 24.1512 6.89054C24.1104 6.87013 24.0644 6.84461 24.0202 6.82079C23.6952 6.64044 23.3754 6.44818 23.0521 6.26103C22.5655 5.9786 22.0772 5.69617 21.5906 5.41544C21.0275 5.09218 20.432 4.84037 19.7599 4.91013C18.8412 5.0003 18.0756 5.50221 17.6128 6.30186C17.3627 6.73061 17.1194 7.15936 16.871 7.58641C16.6243 8.01176 16.381 8.43881 16.1343 8.86416C16.1207 8.88798 16.1053 8.91179 16.0883 8.94072C16.0679 8.97815 16.0441 9.01728 16.0186 9.05131C15.908 9.22995 16.1377 8.95093 15.9879 9.09044C15.9522 9.11766 15.925 9.15339 15.8944 9.18402C15.862 9.21124 15.8314 9.24016 15.7957 9.26739C15.8723 9.20784 15.8859 9.19763 15.8382 9.23336C15.7889 9.25718 15.7447 9.2912 15.6987 9.32013C15.6919 9.32353 15.4997 9.4137 15.6222 9.35756C15.7481 9.30652 15.549 9.38308 15.5422 9.38648C15.4894 9.40009 15.4316 9.4069 15.3823 9.42391C15.2598 9.46304 15.5847 9.42051 15.3789 9.42732C15.3227 9.42732 15.2989 9.43072 15.2427 9.43072C15.2325 9.43072 15.2223 9.43072 15.2121 9.43072C14.2338 9.43752 13.2521 9.43072 12.2738 9.43072C11.4912 9.43072 10.729 9.67402 10.1828 10.2593C9.65028 10.8259 9.4376 11.5336 9.4376 12.2993C9.4376 13.2691 9.44781 14.2439 9.4376 15.2154C9.4376 15.2222 9.4376 15.2291 9.4376 15.2359C9.4376 15.2954 9.44441 15.3754 9.42739 15.4383C9.4342 15.4094 9.46993 15.2529 9.42399 15.406C9.40698 15.4689 9.38996 15.5319 9.37125 15.5949C9.35764 15.6425 9.30149 15.7259 9.38656 15.5727C9.35423 15.6323 9.32701 15.6918 9.29128 15.748C9.26746 15.7888 9.14496 15.9419 9.27767 15.7888C9.20451 15.8722 9.12795 15.9453 9.04798 16.0219C9.1943 15.8824 8.98844 16.0576 8.9476 16.0814C8.91187 16.1019 8.88125 16.1206 8.84722 16.141C8.40486 16.3979 7.9591 16.6531 7.51673 16.91C7.1067 17.1431 6.69837 17.3796 6.29173 17.6161C5.47847 18.0857 4.98337 18.8802 4.9068 19.816C4.85066 20.4812 5.12288 21.0614 5.44274 21.6212C5.73198 22.1197 6.02121 22.6199 6.30875 23.1218C6.50441 23.4587 6.72389 23.7938 6.89403 24.1477C6.87701 24.1137 6.84809 23.998 6.89062 24.1477C6.91104 24.2209 6.92975 24.2906 6.94677 24.3638C6.96038 24.4166 6.94337 24.5033 6.94677 24.3536C6.94677 24.4234 6.95017 24.4999 6.95357 24.5697C6.95357 24.6071 6.93316 24.7364 6.96038 24.5629C6.95017 24.636 6.93316 24.7058 6.91444 24.7755C6.89743 24.8232 6.88382 24.8691 6.8668 24.9168C6.92975 24.7364 6.83788 24.9559 6.82427 24.9797C6.77153 25.0784 6.71708 25.172 6.66094 25.2689C6.18455 26.0907 5.67583 26.9006 5.23007 27.7428C4.68732 28.767 4.84725 30.009 5.62649 30.8648C5.95826 31.2272 6.41423 31.4501 6.83107 31.6934C7.34319 31.9894 7.85531 32.2855 8.36573 32.5781C8.53587 32.6751 8.7043 32.7721 8.87444 32.8725C8.89826 32.8878 8.91868 32.898 8.9442 32.9116C9.00375 32.9456 9.05819 32.9813 9.11094 33.0222C9.08371 33.0018 8.98844 32.9082 9.09392 33.0154C9.13816 33.0613 9.1841 33.1089 9.23003 33.1549C9.36785 33.3012 9.15687 33.0188 9.25385 33.194C9.28788 33.2485 9.32021 33.3046 9.35423 33.3608C9.37976 33.405 9.39337 33.5003 9.34403 33.3352C9.35083 33.3539 9.45462 33.6415 9.4342 33.6534C9.4308 33.6211 9.42739 33.5904 9.42399 33.5581C9.42739 33.6041 9.4308 33.6449 9.4342 33.6908C9.4342 33.7112 9.4342 33.7402 9.4342 33.7606C9.4342 33.7742 9.4342 33.7844 9.4342 33.798C9.4342 33.9733 9.4342 34.1434 9.4342 34.3169C9.4342 34.9124 9.4342 35.5045 9.4342 36.1C9.4342 36.5696 9.40698 37.046 9.50736 37.5087C9.73364 38.5143 10.6218 39.3564 11.6409 39.5164C12.0969 39.5861 12.5597 39.5623 13.019 39.5623C13.6077 39.5623 14.1947 39.5623 14.7834 39.5623C14.9331 39.5623 15.0794 39.5623 15.2257 39.5623C15.2529 39.5657 15.2819 39.5623 15.3091 39.5657C15.3295 39.5657 15.435 39.5657 15.4418 39.5759C15.4095 39.5725 15.3789 39.5691 15.3431 39.5657C15.3891 39.5725 15.4316 39.5827 15.4724 39.5929C15.5184 39.6031 15.5592 39.6168 15.6017 39.6321C15.8025 39.6899 15.452 39.5402 15.6358 39.6457C15.6749 39.6661 15.7157 39.6865 15.7515 39.7086C15.7889 39.7325 15.8246 39.7563 15.862 39.7818C15.7753 39.712 15.7719 39.7086 15.8416 39.7665C15.891 39.8124 16.0951 40.0523 15.9777 39.889C16.0152 39.9451 16.0543 39.9996 16.0883 40.0591C16.1087 40.0949 16.1309 40.1289 16.1513 40.1646C16.2517 40.3416 16.3572 40.5219 16.4575 40.7005C16.757 41.2144 17.0564 41.7333 17.3525 42.2488C17.6434 42.7524 17.919 43.2237 18.3988 43.5844C19.2444 44.219 20.4082 44.2428 21.315 43.7341C21.657 43.5436 21.9973 43.3411 22.3358 43.1471C22.819 42.8681 23.2988 42.5891 23.7803 42.3118C23.9011 42.242 24.0236 42.1688 24.1512 42.1059C23.9811 42.1893 24.1937 42.0957 24.2244 42.0889C24.2703 42.0753 24.3197 42.0634 24.3639 42.0532C24.58 42.0021 24.2108 42.0361 24.4268 42.0463C24.4762 42.0497 24.5272 42.0497 24.5732 42.0463C24.7994 42.0429 24.4166 42.0021 24.6361 42.0532C24.6837 42.0634 24.7331 42.0753 24.779 42.0889C24.8097 42.0957 25.0189 42.1893 24.8522 42.1059C24.8964 42.1297 24.9424 42.1518 24.9832 42.1757C25.8152 42.6384 26.6301 43.125 27.4553 43.598C27.5591 43.661 27.6629 43.7273 27.7752 43.7835C28.2941 44.0472 28.8436 44.1425 29.417 44.0659C30.2728 43.9468 30.9772 43.4177 31.4008 42.6759C31.8959 41.8235 32.3859 40.9677 32.8793 40.1153C32.9049 40.0727 32.9287 40.0353 32.9491 39.9962C32.9746 39.9621 32.9984 39.923 33.0257 39.889C32.9049 40.0557 33.0359 39.8856 33.0614 39.8618C33.0954 39.826 33.1277 39.8022 33.1584 39.7699C33.2315 39.7086 33.2247 39.712 33.1414 39.7818C33.1754 39.7563 33.2145 39.7325 33.2519 39.712C33.2877 39.6865 33.3251 39.6695 33.3642 39.6457C33.5446 39.5453 33.2009 39.6831 33.4017 39.6321C33.4442 39.6219 33.485 39.6031 33.5276 39.5929C33.548 39.5895 33.5684 39.5827 33.5939 39.5793C33.6875 39.5623 33.6773 39.5589 33.5616 39.5759C33.5905 39.5402 33.7539 39.5657 33.8168 39.5657C34.2728 39.5623 34.7322 39.5657 35.1881 39.5657C35.7087 39.5657 36.2311 39.5657 36.7534 39.5657C37.5428 39.5657 38.3272 39.3003 38.8597 38.6946C39.3735 38.111 39.5658 37.4254 39.5658 36.6632C39.5658 36.117 39.5658 35.5743 39.5658 35.0315C39.5658 34.613 39.5624 34.1927 39.5658 33.7742C39.5658 33.747 39.5658 33.718 39.5692 33.6908C39.5692 33.6704 39.5692 33.65 39.5726 33.6245C39.5794 33.5275 39.5794 33.5377 39.5658 33.6534C39.5624 33.6534 39.593 33.5411 39.5964 33.5241C39.6134 33.4611 39.6356 33.4016 39.656 33.3386C39.6066 33.5003 39.6202 33.405 39.6492 33.3642C39.6798 33.308 39.7155 33.2485 39.7461 33.194C39.8431 33.0188 39.6322 33.3012 39.77 33.1583C39.8159 33.1089 39.8652 33.0647 39.9061 33.0154C39.9384 32.9881 40.032 32.9218 39.8891 33.0222C39.9452 32.9847 40.0031 32.9456 40.0592 32.9116C40.0983 32.8912 40.1358 32.8691 40.1749 32.8452C41.0239 32.3552 41.8797 31.8669 42.7287 31.3701C43.5504 30.8937 44.0694 30.043 44.0966 29.0903C44.1204 28.4437 43.8567 27.8925 43.5436 27.3497C43.0877 26.5603 42.6317 25.7709 42.1757 24.9797C41.9528 24.5969 41.3965 24.4268 41.0103 24.6769C40.6241 24.9287 40.4675 25.4289 40.7074 25.844Z" fill="white"/>
</svg>
