<svg width="18" height="18" viewBox="0 0 18 18" fill="none" xmlns="http://www.w3.org/2000/svg">
<path d="M9 18C4.02891 18 0 13.9711 0 9C0 4.02891 4.02891 0 9 0C13.9711 0 18 4.02891 18 9C18 13.9711 13.9711 18 9 18ZM13.732 7.08047C13.2926 6.64102 12.5807 6.64102 12.1412 7.08047L9 10.2199L5.85703 7.08047C5.41758 6.64102 4.70566 6.64102 4.26621 7.08047C3.82676 7.51992 3.82676 8.23184 4.26621 8.67129L8.20371 12.6088C8.42344 12.8285 8.71172 12.9375 9 12.9375C9.28828 12.9375 9.57586 12.8276 9.79523 12.6079L13.7327 8.67041C14.1715 8.23008 14.1715 7.51992 13.732 7.08047Z" fill="#339476"/>
</svg>
