<svg width="35" height="37" viewBox="0 0 35 37" fill="none" xmlns="http://www.w3.org/2000/svg">
<path d="M0 6.9375C0 5.66057 1.11953 4.625 2.5 4.625H32.5C33.8828 4.625 35 5.66057 35 6.9375C35 8.2166 33.8828 9.25 32.5 9.25H2.5C1.11953 9.25 0 8.2166 0 6.9375ZM0 18.5C0 17.2209 1.11953 16.1875 2.5 16.1875H32.5C33.8828 16.1875 35 17.2209 35 18.5C35 19.7791 33.8828 20.8125 32.5 20.8125H2.5C1.11953 20.8125 0 19.7791 0 18.5ZM32.5 32.375H2.5C1.11953 32.375 0 31.3416 0 30.0625C0 28.7834 1.11953 27.75 2.5 27.75H32.5C33.8828 27.75 35 28.7834 35 30.0625C35 31.3416 33.8828 32.375 32.5 32.375Z" fill="black"/>
</svg>
