<svg width="29" height="41" viewBox="0 0 29 41" fill="none" xmlns="http://www.w3.org/2000/svg">
<path d="M14.5408 40.1001C14.1886 40.1001 13.879 39.9827 13.6153 39.7496L8.64382 35.3549C7.38649 34.266 6.25677 33.058 5.25635 31.731C4.25423 30.4056 3.40354 28.99 2.70087 27.4843C1.99989 25.9786 1.46226 24.4167 1.09135 22.7987C0.72045 21.1806 0.523089 19.5422 0.497568 17.8817V10.7001C0.497568 10.5146 0.533298 10.336 0.604756 10.1642C0.676214 9.99232 0.778297 9.84089 0.909304 9.70988C1.04201 9.57888 1.19344 9.4785 1.36528 9.40704C1.53712 9.33558 1.71576 9.29985 1.90292 9.29985C2.2534 9.29985 10.4558 9.17395 13.2223 1.81034C13.2699 1.67423 13.3397 1.55002 13.4264 1.43603C13.5149 1.32204 13.617 1.22336 13.7361 1.14169C13.8535 1.05832 13.9811 0.995371 14.1189 0.952836C14.2567 0.9086 14.3979 0.888184 14.5408 0.888184C14.6855 0.888184 14.8267 0.9086 14.9645 0.952836C15.1023 0.995371 15.2299 1.05832 15.3473 1.14169C15.4664 1.22336 15.5685 1.32204 15.6569 1.43603C15.7437 1.55002 15.8118 1.67423 15.8611 1.81034C18.6429 9.21648 27.0971 9.29985 27.1805 9.29985C27.3676 9.29985 27.5462 9.33558 27.7181 9.40704C27.8899 9.4785 28.0414 9.57888 28.1741 9.70988C28.3051 9.84089 28.4072 9.99232 28.4786 10.1642C28.5501 10.336 28.5841 10.5146 28.5858 10.7001V17.8817C28.5603 19.5422 28.3629 21.1806 27.992 22.7987C27.6194 24.4167 27.0835 25.9786 26.3825 27.4843C25.6798 28.99 24.8291 30.4056 23.827 31.731C22.8266 33.058 21.6969 34.266 20.4395 35.3549L15.4681 39.7496C15.2044 39.9827 14.8947 40.1001 14.5408 40.1001ZM3.30656 12.0017V17.8817C3.31847 19.3483 3.48691 20.7961 3.81017 22.2253C4.13514 23.6562 4.60812 25.0343 5.22913 26.3631C5.85014 27.6919 6.60726 28.939 7.49708 30.1061C8.38691 31.2716 9.39243 32.3316 10.5119 33.2826L14.5408 36.8249L18.5714 33.2537C19.6909 32.3026 20.6965 31.2444 21.5863 30.0772C22.4761 28.9118 23.2332 27.6629 23.8542 26.3359C24.4752 25.0071 24.9482 23.6272 25.2732 22.1981C25.5965 20.7672 25.7649 19.3193 25.7768 17.8544V12.0017C24.6556 11.8996 23.5599 11.6767 22.488 11.333C21.4161 10.9893 20.3953 10.5351 19.4255 9.96679C18.454 9.40023 17.5574 8.73329 16.7339 7.96936C15.9087 7.20544 15.1789 6.36155 14.5408 5.436C13.9045 6.36155 13.1729 7.20544 12.3494 7.96936C11.526 8.73329 10.6293 9.40023 9.65785 9.96679C8.68806 10.5351 7.66552 10.9893 6.59535 11.333C5.52347 11.6767 4.42778 11.8996 3.30656 12.0017Z" fill="white"/>
<path d="M12.4345 25.7507C12.0466 25.7524 11.7148 25.6163 11.4375 25.3441L7.92753 21.9005C7.79483 21.7678 7.69274 21.6163 7.62128 21.4445C7.54983 21.2727 7.5141 21.0923 7.5141 20.9069C7.5141 20.7197 7.54983 20.5411 7.62128 20.3675C7.69274 20.1957 7.79483 20.0443 7.92753 19.9115C8.05854 19.7805 8.21167 19.6785 8.38521 19.607C8.55705 19.5355 8.7374 19.4998 8.92455 19.4998C9.1117 19.4998 9.29035 19.5355 9.46389 19.607C9.63743 19.6785 9.78885 19.7805 9.92156 19.9115L12.4345 22.433L19.1618 15.7125C19.2945 15.5798 19.4459 15.4794 19.6195 15.408C19.7913 15.3365 19.9717 15.3008 20.1588 15.3008C20.346 15.3008 20.5246 15.3365 20.6982 15.408C20.87 15.4794 21.0231 15.5815 21.1558 15.7125C21.2868 15.8452 21.3889 15.9966 21.4604 16.1685C21.5318 16.3403 21.5676 16.5207 21.5676 16.7061C21.5676 16.8933 21.5318 17.0719 21.4604 17.2438C21.3906 17.4156 21.2885 17.5687 21.1558 17.6997L13.4315 25.4002C13.1474 25.652 12.8156 25.7677 12.4345 25.7507Z" fill="white"/>
</svg>
