<svg width="41" height="33" viewBox="0 0 41 33" fill="none" xmlns="http://www.w3.org/2000/svg">
<path d="M20.5442 27.3666C17.919 27.3632 15.3295 26.7695 12.9645 25.6261L16.0066 22.5823C19.3669 25.0919 24.1274 24.3994 26.6318 21.0358C28.6411 18.3408 28.6411 14.6402 26.6284 11.9469L30.1077 8.46591C33.2383 10.5161 35.8567 13.2638 37.7487 16.4948C33.548 23.4126 27.3056 27.3666 20.5442 27.3666ZM15.1134 16.4948C15.11 13.4935 17.5379 11.0622 20.5374 11.0588C21.6042 11.0588 22.6489 11.3736 23.537 11.9657L16.0168 19.4909C15.4265 18.6045 15.1134 17.5615 15.1134 16.4948ZM25.9751 16.4948C25.9785 19.4943 23.5506 21.929 20.551 21.929C19.486 21.929 18.4396 21.6159 17.5515 21.0256L25.0716 13.4969C25.662 14.3867 25.9751 15.4297 25.9751 16.4948ZM3.33979 16.4948C7.54052 9.57521 13.7693 5.62459 20.5442 5.62459C23.1695 5.62459 25.759 6.22178 28.1239 7.36171L25.0784 10.4055C21.7216 7.89935 16.9645 8.59181 14.4584 11.9538C12.4473 14.6505 12.4473 18.3476 14.4618 21.0443L10.9824 24.5219C7.85017 22.4751 5.23174 19.7274 3.33979 16.4948ZM31.6798 6.88872L36.5237 2.04487C36.9507 1.61782 36.9507 0.930456 36.5237 0.50681C36.1 0.0797613 35.4093 0.0797613 34.9856 0.50681L29.7709 5.74539C26.9261 4.23796 23.7599 3.44851 20.5442 3.44851C12.808 3.44851 5.73194 8.00823 1.13479 15.9503C0.940833 16.2872 0.940833 16.704 1.13479 17.0375C3.15264 20.6547 5.97865 23.7563 9.39163 26.1025L4.56479 30.9447C4.14455 31.3734 4.14455 32.0574 4.56479 32.4844C4.98844 32.9081 5.6758 32.9081 6.10285 32.4844L11.3397 27.2663C14.1759 28.7635 17.3354 29.541 20.5442 29.541C28.2805 29.541 35.3531 24.983 39.9537 17.0375C40.1493 16.704 40.1493 16.2872 39.9537 15.9503C37.929 12.3332 35.0962 9.22983 31.6798 6.88872Z" fill="white"/>
</svg>
